<svg xmlns="http://www.w3.org/2000/svg" xmlns:xlink="http://www.w3.org/1999/xlink" width="864" zoomAndPan="magnify" viewBox="0 0 648 1151.999944" height="1536" preserveAspectRatio="xMidYMid meet" version="1.0"><defs><filter x="0%" y="0%" width="100%" height="100%" id="dc16a3d24e"><feColorMatrix values="0 0 0 0 1 0 0 0 0 1 0 0 0 0 1 0 0 0 1 0" color-interpolation-filters="sRGB"/></filter><mask id="e078ac5e0c"><g filter="url(#dc16a3d24e)"><rect x="-64.8" width="777.6" fill="#000000" y="-115.199994" height="1382.399933" fill-opacity="0.1"/></g></mask><clipPath id="2a4acab48b"><path d="M 238 99 L 239 99 L 239 100 L 238 100 Z M 238 99 " clip-rule="nonzero"/></clipPath><clipPath id="717e5d529c"><path d="M 34.542969 430.84375 L 0.519531 -42.6875 L 422.429688 -73 L 456.453125 400.527344 Z M 34.542969 430.84375 " clip-rule="nonzero"/></clipPath><clipPath id="ff22055966"><path d="M 34.542969 430.84375 L 0.519531 -42.6875 L 422.429688 -73 L 456.453125 400.527344 Z M 34.542969 430.84375 " clip-rule="nonzero"/></clipPath><clipPath id="5d66f4b445"><path d="M 1 0 L 360 0 L 360 403 L 1 403 Z M 1 0 " clip-rule="nonzero"/></clipPath><clipPath id="3031af50e0"><path d="M 34.542969 430.84375 L 0.519531 -42.6875 L 422.429688 -73 L 456.453125 400.527344 Z M 34.542969 430.84375 " clip-rule="nonzero"/></clipPath><clipPath id="8be74fc51c"><path d="M 34.542969 430.84375 L 0.519531 -42.6875 L 422.429688 -73 L 456.453125 400.527344 Z M 34.542969 430.84375 " clip-rule="nonzero"/></clipPath><clipPath id="12c9d6897c"><path d="M 234 80 L 235 80 L 235 81 L 234 81 Z M 234 80 " clip-rule="nonzero"/></clipPath><clipPath id="b3eb1e9d3e"><path d="M 34.542969 430.84375 L 0.519531 -42.6875 L 422.429688 -73 L 456.453125 400.527344 Z M 34.542969 430.84375 " clip-rule="nonzero"/></clipPath><clipPath id="5e52b280cc"><path d="M 34.542969 430.84375 L 0.519531 -42.6875 L 422.429688 -73 L 456.453125 400.527344 Z M 34.542969 430.84375 " clip-rule="nonzero"/></clipPath><clipPath id="e3b3047969"><path d="M 20 0 L 360 0 L 360 379 L 20 379 Z M 20 0 " clip-rule="nonzero"/></clipPath><clipPath id="0766f0802f"><path d="M 34.542969 430.84375 L 0.519531 -42.6875 L 422.429688 -73 L 456.453125 400.527344 Z M 34.542969 430.84375 " clip-rule="nonzero"/></clipPath><clipPath id="a912640858"><path d="M 34.542969 430.84375 L 0.519531 -42.6875 L 422.429688 -73 L 456.453125 400.527344 Z M 34.542969 430.84375 " clip-rule="nonzero"/></clipPath><clipPath id="bc82441e6d"><path d="M 288 110 L 289 110 L 289 111 L 288 111 Z M 288 110 " clip-rule="nonzero"/></clipPath><clipPath id="25775e23fe"><path d="M 34.542969 430.84375 L 0.519531 -42.6875 L 422.429688 -73 L 456.453125 400.527344 Z M 34.542969 430.84375 " clip-rule="nonzero"/></clipPath><clipPath id="735814124e"><path d="M 34.542969 430.84375 L 0.519531 -42.6875 L 422.429688 -73 L 456.453125 400.527344 Z M 34.542969 430.84375 " clip-rule="nonzero"/></clipPath><clipPath id="e7800cc75e"><path d="M 36 0 L 360 0 L 360 364 L 36 364 Z M 36 0 " clip-rule="nonzero"/></clipPath><clipPath id="dcf9f129e3"><path d="M 34.542969 430.84375 L 0.519531 -42.6875 L 422.429688 -73 L 456.453125 400.527344 Z M 34.542969 430.84375 " clip-rule="nonzero"/></clipPath><clipPath id="1f47820aa0"><path d="M 34.542969 430.84375 L 0.519531 -42.6875 L 422.429688 -73 L 456.453125 400.527344 Z M 34.542969 430.84375 " clip-rule="nonzero"/></clipPath><clipPath id="e6e50b6b4c"><path d="M 311 180 L 312 180 L 312 181 L 311 181 Z M 311 180 " clip-rule="nonzero"/></clipPath><clipPath id="d32e55cce4"><path d="M 34.542969 430.84375 L 0.519531 -42.6875 L 422.429688 -73 L 456.453125 400.527344 Z M 34.542969 430.84375 " clip-rule="nonzero"/></clipPath><clipPath id="db43fb84a5"><path d="M 34.542969 430.84375 L 0.519531 -42.6875 L 422.429688 -73 L 456.453125 400.527344 Z M 34.542969 430.84375 " clip-rule="nonzero"/></clipPath><clipPath id="07cc2d81b8"><path d="M 72 0 L 360 0 L 360 347 L 72 347 Z M 72 0 " clip-rule="nonzero"/></clipPath><clipPath id="1519938680"><path d="M 34.542969 430.84375 L 0.519531 -42.6875 L 422.429688 -73 L 456.453125 400.527344 Z M 34.542969 430.84375 " clip-rule="nonzero"/></clipPath><clipPath id="2c4f8eb04b"><path d="M 34.542969 430.84375 L 0.519531 -42.6875 L 422.429688 -73 L 456.453125 400.527344 Z M 34.542969 430.84375 " clip-rule="nonzero"/></clipPath><clipPath id="5a7fe46624"><path d="M 303 182 L 304 182 L 304 183 L 303 183 Z M 303 182 " clip-rule="nonzero"/></clipPath><clipPath id="928a6f84cd"><path d="M 34.542969 430.84375 L 0.519531 -42.6875 L 422.429688 -73 L 456.453125 400.527344 Z M 34.542969 430.84375 " clip-rule="nonzero"/></clipPath><clipPath id="0bf505e7ac"><path d="M 34.542969 430.84375 L 0.519531 -42.6875 L 422.429688 -73 L 456.453125 400.527344 Z M 34.542969 430.84375 " clip-rule="nonzero"/></clipPath><clipPath id="7239d7d86e"><path d="M 139 0 L 360 0 L 360 329 L 139 329 Z M 139 0 " clip-rule="nonzero"/></clipPath><clipPath id="971a0cc2a6"><path d="M 34.542969 430.84375 L 0.519531 -42.6875 L 422.429688 -73 L 456.453125 400.527344 Z M 34.542969 430.84375 " clip-rule="nonzero"/></clipPath><clipPath id="ee94b24ec9"><path d="M 34.542969 430.84375 L 0.519531 -42.6875 L 422.429688 -73 L 456.453125 400.527344 Z M 34.542969 430.84375 " clip-rule="nonzero"/></clipPath><clipPath id="66a7b1a1f0"><path d="M 270 0 L 360 0 L 360 50 L 270 50 Z M 270 0 " clip-rule="nonzero"/></clipPath><clipPath id="a9edb2112b"><path d="M 34.542969 430.84375 L 0.519531 -42.6875 L 422.429688 -73 L 456.453125 400.527344 Z M 34.542969 430.84375 " clip-rule="nonzero"/></clipPath><clipPath id="ca5b43ca65"><path d="M 34.542969 430.84375 L 0.519531 -42.6875 L 422.429688 -73 L 456.453125 400.527344 Z M 34.542969 430.84375 " clip-rule="nonzero"/></clipPath><clipPath id="10442003fa"><rect x="0" width="360" y="0" height="430"/></clipPath><mask id="fb00436f51"><g filter="url(#dc16a3d24e)"><rect x="-64.8" width="777.6" fill="#000000" y="-115.199994" height="1382.399933" fill-opacity="0.35"/></g></mask><clipPath id="b860aea0b1"><path d="M 154 378 L 155 378 L 155 379 L 154 379 Z M 154 378 " clip-rule="nonzero"/></clipPath><clipPath id="979e3a3d37"><path d="M 240.925781 -1.007812 L 425.722656 436.300781 L 36.082031 600.953125 L -148.714844 163.648438 Z M 240.925781 -1.007812 " clip-rule="nonzero"/></clipPath><clipPath id="efa513ccfe"><path d="M 240.925781 -1.007812 L 425.722656 436.300781 L 36.082031 600.953125 L -148.714844 163.648438 Z M 240.925781 -1.007812 " clip-rule="nonzero"/></clipPath><clipPath id="7184e3b444"><path d="M 0 125 L 423 125 L 423 405 L 0 405 Z M 0 125 " clip-rule="nonzero"/></clipPath><clipPath id="eb7593d68f"><path d="M 240.925781 -1.007812 L 425.722656 436.300781 L 36.082031 600.953125 L -148.714844 163.648438 Z M 240.925781 -1.007812 " clip-rule="nonzero"/></clipPath><clipPath id="57cb8272ea"><path d="M 240.925781 -1.007812 L 425.722656 436.300781 L 36.082031 600.953125 L -148.714844 163.648438 Z M 240.925781 -1.007812 " clip-rule="nonzero"/></clipPath><clipPath id="1dec4b7cc1"><path d="M 164 394 L 165 394 L 165 396 L 164 396 Z M 164 394 " clip-rule="nonzero"/></clipPath><clipPath id="3cc3f97d5a"><path d="M 240.925781 -1.007812 L 425.722656 436.300781 L 36.082031 600.953125 L -148.714844 163.648438 Z M 240.925781 -1.007812 " clip-rule="nonzero"/></clipPath><clipPath id="cfd794db80"><path d="M 240.925781 -1.007812 L 425.722656 436.300781 L 36.082031 600.953125 L -148.714844 163.648438 Z M 240.925781 -1.007812 " clip-rule="nonzero"/></clipPath><clipPath id="49997de374"><path d="M 0 150 L 403 150 L 403 405 L 0 405 Z M 0 150 " clip-rule="nonzero"/></clipPath><clipPath id="e1de93b9ac"><path d="M 240.925781 -1.007812 L 425.722656 436.300781 L 36.082031 600.953125 L -148.714844 163.648438 Z M 240.925781 -1.007812 " clip-rule="nonzero"/></clipPath><clipPath id="8fd887fb8c"><path d="M 240.925781 -1.007812 L 425.722656 436.300781 L 36.082031 600.953125 L -148.714844 163.648438 Z M 240.925781 -1.007812 " clip-rule="nonzero"/></clipPath><clipPath id="8ebbd99282"><path d="M 103 383 L 104 383 L 104 385 L 103 385 Z M 103 383 " clip-rule="nonzero"/></clipPath><clipPath id="f086004388"><path d="M 240.925781 -1.007812 L 425.722656 436.300781 L 36.082031 600.953125 L -148.714844 163.648438 Z M 240.925781 -1.007812 " clip-rule="nonzero"/></clipPath><clipPath id="2f22295a0a"><path d="M 240.925781 -1.007812 L 425.722656 436.300781 L 36.082031 600.953125 L -148.714844 163.648438 Z M 240.925781 -1.007812 " clip-rule="nonzero"/></clipPath><clipPath id="f057dc009c"><path d="M 0 167 L 392 167 L 392 405 L 0 405 Z M 0 167 " clip-rule="nonzero"/></clipPath><clipPath id="930ecc8642"><path d="M 240.925781 -1.007812 L 425.722656 436.300781 L 36.082031 600.953125 L -148.714844 163.648438 Z M 240.925781 -1.007812 " clip-rule="nonzero"/></clipPath><clipPath id="9e6ff5d029"><path d="M 240.925781 -1.007812 L 425.722656 436.300781 L 36.082031 600.953125 L -148.714844 163.648438 Z M 240.925781 -1.007812 " clip-rule="nonzero"/></clipPath><clipPath id="d1139db561"><path d="M 59 325 L 60 325 L 60 326 L 59 326 Z M 59 325 " clip-rule="nonzero"/></clipPath><clipPath id="5155f5c109"><path d="M 240.925781 -1.007812 L 425.722656 436.300781 L 36.082031 600.953125 L -148.714844 163.648438 Z M 240.925781 -1.007812 " clip-rule="nonzero"/></clipPath><clipPath id="0992998e9e"><path d="M 240.925781 -1.007812 L 425.722656 436.300781 L 36.082031 600.953125 L -148.714844 163.648438 Z M 240.925781 -1.007812 " clip-rule="nonzero"/></clipPath><clipPath id="0ce8ea4342"><path d="M 0 193 L 357 193 L 357 405 L 0 405 Z M 0 193 " clip-rule="nonzero"/></clipPath><clipPath id="b5f57d8ce6"><path d="M 240.925781 -1.007812 L 425.722656 436.300781 L 36.082031 600.953125 L -148.714844 163.648438 Z M 240.925781 -1.007812 " clip-rule="nonzero"/></clipPath><clipPath id="78c68d147c"><path d="M 240.925781 -1.007812 L 425.722656 436.300781 L 36.082031 600.953125 L -148.714844 163.648438 Z M 240.925781 -1.007812 " clip-rule="nonzero"/></clipPath><clipPath id="a5a35a94b9"><path d="M 66 320 L 67 320 L 67 321 L 66 321 Z M 66 320 " clip-rule="nonzero"/></clipPath><clipPath id="653a092636"><path d="M 240.925781 -1.007812 L 425.722656 436.300781 L 36.082031 600.953125 L -148.714844 163.648438 Z M 240.925781 -1.007812 " clip-rule="nonzero"/></clipPath><clipPath id="edc8c2e07a"><path d="M 240.925781 -1.007812 L 425.722656 436.300781 L 36.082031 600.953125 L -148.714844 163.648438 Z M 240.925781 -1.007812 " clip-rule="nonzero"/></clipPath><clipPath id="d755f67a2e"><path d="M 0 217 L 295 217 L 295 405 L 0 405 Z M 0 217 " clip-rule="nonzero"/></clipPath><clipPath id="1f8403d357"><path d="M 240.925781 -1.007812 L 425.722656 436.300781 L 36.082031 600.953125 L -148.714844 163.648438 Z M 240.925781 -1.007812 " clip-rule="nonzero"/></clipPath><clipPath id="3541558453"><path d="M 240.925781 -1.007812 L 425.722656 436.300781 L 36.082031 600.953125 L -148.714844 163.648438 Z M 240.925781 -1.007812 " clip-rule="nonzero"/></clipPath><clipPath id="cb17f4112a"><path d="M 0 346 L 11 346 L 11 405 L 0 405 Z M 0 346 " clip-rule="nonzero"/></clipPath><clipPath id="57605557af"><path d="M 240.925781 -1.007812 L 425.722656 436.300781 L 36.082031 600.953125 L -148.714844 163.648438 Z M 240.925781 -1.007812 " clip-rule="nonzero"/></clipPath><clipPath id="854f7722d8"><path d="M 240.925781 -1.007812 L 425.722656 436.300781 L 36.082031 600.953125 L -148.714844 163.648438 Z M 240.925781 -1.007812 " clip-rule="nonzero"/></clipPath><clipPath id="5c1d094016"><rect x="0" width="426" y="0" height="405"/></clipPath></defs><g mask="url(#e078ac5e0c)"><g transform="matrix(1, 0, 0, 1, 288, -0.000000000000031624)"><g clip-path="url(#10442003fa)"><g clip-path="url(#2a4acab48b)"><g clip-path="url(#717e5d529c)"><g clip-path="url(#ff22055966)"><path fill="#f1573b" d="M 238.46875 99.03125 C 238.464844 98.960938 238.429688 99.09375 238.34375 99.71875 L 238.339844 99.679688 C 238.390625 99.457031 238.425781 99.246094 238.46875 99.03125 Z M 238.46875 99.03125 " fill-opacity="1" fill-rule="nonzero"/></g></g></g><g clip-path="url(#5d66f4b445)"><g clip-path="url(#3031af50e0)"><g clip-path="url(#8be74fc51c)"><path fill="#f1573b" d="M 1.882812 -35.230469 C 1.785156 -25.035156 3.140625 -15.328125 6.566406 -5.667969 C 9.621094 2.867188 13.914062 10.722656 19.445312 17.902344 C 30.953125 32.867188 46.628906 44.164062 64.003906 51.347656 C 82.394531 58.953125 102.863281 56.824219 121.863281 53.0625 C 132.503906 50.957031 143.136719 48.332031 153.515625 46.804688 C 158.320312 46.078125 163.152344 45.621094 168.007812 45.441406 C 170.347656 45.363281 172.6875 45.363281 175.023438 45.464844 C 176.835938 45.519531 178.640625 45.6875 180.4375 45.960938 C 193.132812 47.839844 205.4375 54 215.953125 61.691406 C 221.613281 65.824219 226.761719 70.355469 231.050781 75.824219 C 232.121094 77.195312 233.136719 78.609375 234.078125 80.070312 L 234.199219 80.265625 C 234.171875 80.214844 234.3125 80.433594 234.421875 80.617188 L 234.625 80.9375 L 234.449219 80.660156 L 234.507812 80.765625 C 234.984375 81.648438 235.46875 82.519531 235.90625 83.421875 C 236.546875 84.742188 237.117188 86.09375 237.605469 87.476562 C 237.714844 87.792969 237.8125 88.109375 237.921875 88.425781 L 237.925781 88.503906 C 238.097656 89.277344 238.292969 90.039062 238.4375 90.820312 C 238.578125 91.597656 238.691406 92.371094 238.773438 93.152344 C 238.796875 93.464844 238.816406 93.78125 238.855469 94.089844 C 238.757812 95.621094 238.761719 97.128906 238.515625 98.65625 C 238.496094 98.78125 238.472656 98.902344 238.449219 99.023438 C 238.4375 99.207031 238.410156 99.390625 238.363281 99.566406 L 238.332031 99.671875 L 238.300781 99.847656 L 238.320312 99.710938 C 238.101562 100.460938 237.890625 101.210938 237.613281 101.957031 C 237.339844 102.699219 237.074219 103.398438 236.761719 104.101562 C 236.582031 104.503906 236.386719 104.894531 236.207031 105.300781 C 236.863281 103.835938 236.109375 105.445312 235.984375 105.667969 C 235.136719 107.164062 234.191406 108.597656 233.15625 109.972656 C 232.824219 110.414062 232.480469 110.839844 232.136719 111.265625 L 232.070312 111.332031 C 231.367188 112.023438 230.679688 112.71875 229.921875 113.355469 C 229.554688 113.667969 227.644531 114.898438 229.085938 114.054688 C 228.363281 114.476562 227.667969 114.925781 226.917969 115.308594 C 226.332031 115.609375 225.71875 115.851562 225.121094 116.132812 C 225.0625 116.160156 225.015625 116.183594 224.972656 116.207031 L 225 116.207031 C 224.523438 116.34375 224.054688 116.496094 223.582031 116.625 C 222.121094 116.980469 220.640625 117.257812 219.148438 117.449219 C 219.117188 117.449219 219.089844 117.453125 219.0625 117.453125 C 218.65625 117.460938 218.246094 117.511719 217.835938 117.523438 C 216.972656 117.550781 216.082031 117.558594 215.203125 117.542969 C 211.652344 117.441406 208.121094 117.105469 204.609375 116.539062 C 204.671875 116.53125 203.355469 116.339844 203.023438 116.269531 C 202.066406 116.101562 201.109375 115.929688 200.15625 115.75 C 198.222656 115.386719 196.296875 115.007812 194.367188 114.640625 C 190.261719 113.847656 186.140625 113.0625 181.984375 112.546875 C 174.53125 111.617188 166.953125 111.382812 159.613281 113.261719 C 151.460938 115.351562 144.070312 120.71875 139.183594 127.535156 C 129.515625 141.027344 129.351562 158.8125 134.449219 174.125 C 145.574219 207.539062 180.894531 226.199219 213.53125 232.265625 C 221.210938 233.691406 228.921875 234.839844 236.554688 236.519531 C 240.019531 237.28125 243.457031 238.164062 246.835938 239.25 C 249.980469 240.195312 253.007812 241.421875 255.917969 242.9375 C 258.890625 244.476562 261.730469 246.234375 264.433594 248.207031 C 263.492188 247.53125 264.457031 248.207031 264.6875 248.394531 C 265.035156 248.660156 265.386719 248.949219 265.730469 249.234375 C 266.355469 249.75 266.972656 250.285156 267.578125 250.835938 C 268.957031 252.078125 270.277344 253.386719 271.527344 254.753906 C 276.863281 260.59375 281.300781 268.132812 283.96875 275.261719 C 287.402344 284.433594 288.339844 293.050781 287.539062 303.03125 C 286.777344 312.59375 284.621094 321.992188 283.324219 331.480469 C 282.085938 340.535156 280.925781 350.386719 282.730469 359.441406 C 284.066406 366.164062 287.007812 372.332031 291.632812 377.429688 C 301.214844 388.003906 314.71875 393.542969 328.289062 397.085938 C 341.351562 400.484375 354.90625 401.867188 368.382812 402.015625 C 378.617188 402.128906 388.628906 400.085938 398.730469 398.65625 C 405.507812 397.699219 412.3125 396.878906 419.109375 396.148438 C 422.332031 395.800781 425.5625 395.535156 428.796875 395.433594 C 429.496094 395.414062 430.195312 395.382812 430.894531 395.394531 C 431.761719 395.40625 429.738281 395.386719 431.1875 395.429688 C 431.203125 395.425781 432.417969 395.4375 432.46875 395.429688 C 433.753906 395.472656 435.039062 395.5625 436.316406 395.703125 C 436.964844 395.777344 437.613281 395.859375 438.253906 395.964844 C 438.523438 396.007812 439.984375 396.28125 439.496094 396.164062 C 438.703125 395.992188 443.09375 396.773438 441.433594 396.480469 C 441.628906 396.515625 442.804688 396.824219 442.570312 396.738281 C 443.222656 396.9375 443.855469 397.179688 444.46875 397.46875 C 444.386719 397.457031 445.148438 397.925781 445.285156 398.023438 C 445.425781 398.125 445.492188 398.167969 445.539062 398.195312 C 445.605469 398.292969 445.675781 398.386719 445.753906 398.472656 C 448.019531 401.09375 452.710938 398.71875 451.203125 395.304688 C 449.761719 392.019531 446.957031 389.90625 443.882812 388.28125 C 441.753906 386.855469 438.738281 386.453125 436.332031 386.015625 C 433.53125 385.527344 430.714844 385.203125 427.875 385.046875 C 424.40625 384.828125 420.914062 384.792969 417.445312 384.804688 C 416.574219 384.8125 415.699219 384.820312 414.824219 384.835938 C 414.628906 384.847656 414.429688 384.84375 414.246094 384.847656 C 414.109375 384.839844 412.75 384.835938 412.722656 384.835938 C 410.964844 384.90625 409.195312 385.089844 407.4375 385.25 C 396.378906 386.191406 385.386719 388.046875 374.308594 388.789062 C 372.160156 388.941406 369.980469 388.90625 367.839844 388.875 L 367.078125 388.863281 C 366.441406 388.835938 365.804688 388.824219 365.164062 388.796875 C 363.617188 388.734375 362.070312 388.652344 360.519531 388.550781 C 354.089844 388.128906 347.707031 387.339844 341.367188 386.1875 C 334.761719 384.972656 328.632812 383.453125 322.605469 381.199219 C 319.578125 380.078125 316.628906 378.777344 313.761719 377.292969 C 312.644531 376.710938 311.558594 376.09375 310.476562 375.453125 C 310.457031 375.433594 309.769531 375.003906 309.394531 374.75 C 308.609375 374.21875 307.84375 373.664062 307.089844 373.089844 C 305.980469 372.246094 304.917969 371.351562 303.894531 370.402344 C 303.449219 369.988281 303.019531 369.558594 302.589844 369.128906 C 302.453125 368.996094 301.519531 367.871094 302.277344 368.824219 C 303.039062 369.78125 302.023438 368.507812 301.867188 368.320312 C 300.964844 367.238281 300.132812 366.101562 299.375 364.910156 C 299.050781 364.425781 298.804688 363.910156 298.496094 363.425781 C 298.347656 363.101562 298.183594 362.777344 298.039062 362.449219 C 297.46875 361.136719 297 359.789062 296.628906 358.40625 C 296.433594 357.664062 296.269531 356.421875 296.488281 357.917969 C 296.363281 357.058594 296.207031 356.203125 296.125 355.339844 C 295.683594 350.894531 295.816406 346.347656 296.226562 341.902344 C 297.953125 323.269531 303.824219 304.710938 300.890625 285.863281 C 298.09375 267.867188 287.515625 250.613281 272.941406 239.695312 C 261.300781 230.964844 246.179688 227.308594 231.921875 225.5625 C 224.089844 224.601562 216.167969 224.417969 208.359375 223.242188 C 200.226562 222.019531 192.1875 219.558594 184.589844 216.382812 C 169.179688 209.921875 154.589844 199.359375 146 184.738281 C 138.886719 172.636719 135.324219 156.292969 141.117188 142.988281 C 144.054688 136.242188 148.699219 131.378906 154.992188 127.890625 C 155.46875 127.628906 155.949219 127.375 156.4375 127.132812 C 156.632812 127.03125 157.667969 126.578125 156.582031 127.078125 C 157.113281 126.832031 157.5 126.660156 157.769531 126.539062 C 158.101562 126.398438 158.433594 126.261719 158.769531 126.132812 C 160.425781 125.535156 162.113281 125.058594 163.835938 124.707031 C 163.980469 124.675781 164.289062 124.628906 164.480469 124.601562 C 164.671875 124.574219 164.894531 124.546875 165.101562 124.523438 C 165.898438 124.433594 166.699219 124.371094 167.496094 124.328125 C 169.222656 124.238281 170.945312 124.238281 172.667969 124.332031 C 187.164062 125.050781 201.066406 130.664062 215.644531 130.765625 C 223.703125 130.816406 231.34375 128.976562 237.886719 124.15625 C 243.929688 119.707031 248.734375 112.367188 250.808594 105.199219 C 259.496094 75.191406 228.386719 50.703125 204.347656 40.121094 C 198.242188 37.4375 191.789062 35.164062 185.207031 33.996094 C 176.519531 32.457031 167.488281 32.753906 158.765625 33.828125 C 137.945312 36.398438 117.75 43.136719 96.738281 44.359375 C 88.234375 44.84375 78.976562 43.875 70.632812 40.984375 C 66.386719 39.511719 62.320312 37.53125 58.375 35.375 C 54.769531 33.417969 51.296875 31.25 47.953125 28.867188 C 34.414062 18.964844 23.46875 6.070312 17.367188 -9.984375 C 14.382812 -17.824219 12.636719 -26.53125 12.71875 -34.945312 C 12.777344 -41.925781 1.949219 -42.203125 1.882812 -35.230469 Z M 1.882812 -35.230469 " fill-opacity="1" fill-rule="nonzero"/></g></g></g><g clip-path="url(#12c9d6897c)"><g clip-path="url(#b3eb1e9d3e)"><g clip-path="url(#5e52b280cc)"><path fill="#f1573b" d="M 234.207031 80.261719 L 234.457031 80.65625 L 234.429688 80.613281 Z M 234.207031 80.261719 " fill-opacity="1" fill-rule="nonzero"/></g></g></g><g clip-path="url(#e3b3047969)"><g clip-path="url(#0766f0802f)"><g clip-path="url(#a912640858)"><path fill="#f1573b" d="M 20.875 -31.496094 C 20.167969 -21.96875 25.382812 -14.859375 31.464844 -8.109375 C 38.015625 -0.777344 45.140625 5.949219 52.832031 12.070312 C 60.28125 17.949219 68.375 23.101562 77.167969 26.71875 C 85.449219 30.128906 93.695312 30.25 102.160156 27.527344 C 106.019531 26.289062 109.765625 24.699219 113.589844 23.394531 C 118.160156 21.835938 122.839844 20.722656 127.621094 20.050781 C 137.585938 18.648438 147.703125 18.984375 157.65625 20.277344 C 167.402344 21.546875 176.988281 23.648438 186.589844 25.742188 C 191.371094 26.78125 196.15625 27.808594 200.976562 28.734375 C 205.164062 29.542969 209.429688 30.046875 213.574219 30.996094 C 227.949219 34.273438 240.546875 41.632812 252.578125 49.855469 C 254 51.628906 255.867188 53.144531 257.421875 54.773438 C 259.144531 56.582031 261.113281 58.15625 262.933594 59.871094 C 266.605469 63.351562 270.050781 67.039062 273.273438 70.9375 L 273.40625 71.101562 L 273.722656 71.5 C 274.089844 71.980469 274.457031 72.457031 274.820312 72.941406 C 275.589844 73.96875 276.335938 75.011719 277.070312 76.070312 C 278.402344 78.015625 279.660156 80.011719 280.84375 82.058594 C 281.417969 83.0625 281.988281 84.074219 282.542969 85.09375 C 283.046875 86.019531 284.054688 87.316406 284.222656 88.363281 C 284.222656 88.378906 283.640625 87.042969 283.953125 87.804688 C 284.046875 88.027344 284.152344 88.242188 284.25 88.460938 C 284.476562 88.972656 284.699219 89.488281 284.917969 90.003906 C 285.378906 91.101562 285.808594 92.210938 286.195312 93.332031 C 286.941406 95.460938 287.570312 97.628906 288.074219 99.828125 L 288.164062 100.210938 L 288.183594 100.449219 C 288.25 100.898438 288.332031 101.347656 288.394531 101.796875 C 288.558594 102.921875 288.679688 104.050781 288.761719 105.179688 C 288.835938 106.230469 288.871094 107.289062 288.902344 108.351562 C 288.914062 108.878906 288.925781 109.402344 288.921875 109.925781 L 288.914062 110.375 C 288.921875 110.363281 288.929688 110.351562 288.941406 110.339844 C 288.929688 110.351562 288.921875 110.363281 288.914062 110.375 L 288.910156 110.601562 C 288.910156 111.367188 288.75 111.175781 288.757812 110.839844 C 288.636719 111.578125 288.710938 112.820312 288.644531 113.265625 C 288.492188 114.398438 288.296875 115.519531 288.054688 116.632812 C 287.941406 117.15625 287.820312 117.675781 287.683594 118.199219 C 287.585938 118.585938 287.457031 119.023438 287.429688 119.128906 C 287.125 120.035156 286.804688 120.9375 286.441406 121.824219 C 286.046875 122.792969 285.621094 123.746094 285.164062 124.683594 C 284.910156 125.199219 284.660156 125.710938 284.378906 126.214844 C 284.230469 126.492188 284.0625 126.765625 283.917969 127.046875 C 282.589844 129.144531 281.144531 131.160156 279.585938 133.089844 C 278.8125 134.015625 278.007812 134.925781 277.175781 135.816406 L 276.761719 136.246094 L 276.589844 136.417969 C 276.015625 136.96875 275.445312 137.519531 274.863281 138.058594 C 270.0625 142.453125 265.523438 146.035156 259.835938 148.445312 C 256.964844 149.664062 253.988281 150.515625 250.910156 151.007812 C 247.890625 151.550781 244.847656 151.871094 241.78125 151.976562 C 228.035156 152.386719 214.445312 149.539062 200.796875 148.375 C 191.988281 147.621094 182.710938 147.230469 174.226562 150.089844 C 170.324219 151.40625 166.746094 153.363281 164.1875 156.664062 C 161.566406 160.035156 161.164062 164.222656 161.738281 168.34375 C 162.957031 177.035156 171.6875 183.664062 178.230469 188.539062 C 186.121094 194.425781 194.671875 199.390625 203.289062 204.125 C 213.59375 209.789062 224.503906 213.011719 236.078125 214.851562 C 247.804688 216.726562 259.757812 217.582031 271.214844 220.871094 C 277.320312 222.613281 283.066406 225.160156 288.457031 228.507812 C 293.847656 231.855469 298.679688 235.875 302.949219 240.570312 C 311.269531 249.621094 317.714844 260.472656 322.09375 271.933594 C 326.433594 283.289062 329.066406 296.015625 327.4375 308.167969 C 326.660156 314.007812 325.164062 319.761719 322.578125 325.066406 C 320.414062 329.5 317.558594 333.570312 315.46875 338.046875 C 313.574219 342.105469 312.621094 346.695312 313.757812 351.105469 C 315.253906 356.863281 318.730469 361.578125 323.175781 365.425781 C 327.457031 369.125 331.875 372.136719 337.179688 374.195312 C 342.484375 376.25 348.167969 377.433594 353.839844 377.992188 C 366.148438 379.203125 378.652344 377.1875 390.851562 375.644531 C 404.84375 373.867188 418.980469 371.679688 433.117188 372.191406 C 439.71875 372.433594 446.519531 373.226562 452.933594 374.816406 C 453.890625 375.050781 454.339844 373.691406 453.410156 373.351562 C 436.414062 367.234375 417.535156 370.230469 400.175781 373.097656 C 383.105469 375.914062 365.710938 379.472656 348.460938 375.945312 C 340.804688 374.375 333.195312 371.449219 327.195312 366.328125 C 323.894531 363.507812 322.121094 359.75 320.292969 355.890625 C 318.90625 352.964844 317.953125 349.761719 318.257812 346.496094 C 318.808594 340.539062 323.230469 335.550781 325.980469 330.480469 C 327.871094 327.039062 329.363281 323.433594 330.464844 319.664062 C 331.5625 315.894531 332.242188 312.050781 332.5 308.132812 C 333.5625 291.613281 329.664062 275.28125 322.183594 260.574219 C 314.726562 245.914062 303.953125 232.285156 289.648438 223.828125 C 275.378906 215.375 258.960938 213.589844 242.902344 211.347656 C 234.964844 210.242188 227.027344 208.886719 219.40625 206.382812 C 212.960938 204.265625 207.054688 201.078125 201.148438 197.8125 C 195.242188 194.546875 189.316406 191.066406 183.695312 187.210938 C 178.359375 183.542969 172.984375 179.546875 168.949219 174.4375 C 165.953125 170.648438 164.105469 165.269531 166.945312 160.8125 C 169.542969 156.722656 175.347656 155.761719 179.800781 155.445312 C 193.765625 154.464844 207.6875 157.832031 221.441406 160.425781 C 230.671875 162.164062 240.035156 163.515625 249.449219 162.917969 C 254.195312 162.621094 258.820312 161.707031 263.320312 160.175781 C 267.820312 158.648438 272.042969 156.558594 275.988281 153.902344 C 288.132812 145.824219 297.898438 134.109375 301.710938 119.867188 C 305.160156 106.992188 302.105469 93.871094 296.421875 82.148438 C 290.648438 70.214844 281.113281 59.960938 270.910156 51.644531 C 268.109375 49.363281 265.359375 47.230469 262.183594 45.511719 C 259.140625 43.867188 256.320312 42.390625 253.34375 40.652344 C 247.542969 37.21875 241.496094 34.304688 235.195312 31.90625 C 229.394531 29.714844 223.4375 28.085938 217.332031 27.015625 C 213.746094 26.40625 210.132812 26.089844 206.542969 25.476562 C 201.65625 24.671875 196.804688 23.703125 191.957031 22.695312 C 173.253906 18.804688 154.324219 14.183594 135.082031 15.253906 C 125.574219 15.78125 116.613281 17.960938 107.695312 21.207031 C 100.066406 23.976562 92.507812 26.503906 84.351562 24.402344 C 75.277344 22.066406 66.777344 16.46875 59.292969 11 C 51.480469 5.292969 44.339844 -1.320312 37.714844 -8.363281 C 31.980469 -14.464844 24.890625 -21.492188 25.566406 -30.578125 C 25.757812 -33.574219 21.101562 -34.542969 20.875 -31.496094 Z M 20.875 -31.496094 " fill-opacity="1" fill-rule="nonzero"/></g></g></g><g clip-path="url(#bc82441e6d)"><g clip-path="url(#25775e23fe)"><g clip-path="url(#735814124e)"><path fill="#f1573b" d="M 288.910156 110.351562 C 288.8125 110.488281 288.761719 110.644531 288.757812 110.816406 C 288.777344 110.648438 288.828125 110.496094 288.910156 110.351562 Z M 288.910156 110.351562 " fill-opacity="1" fill-rule="nonzero"/></g></g></g><g clip-path="url(#e7800cc75e)"><g clip-path="url(#dcf9f129e3)"><g clip-path="url(#1f47820aa0)"><path fill="#f1573b" d="M 39.691406 -45.359375 C 37.722656 -44.867188 35.957031 -42.488281 36.714844 -40.40625 C 39.0625 -33.957031 41.859375 -28.203125 45.921875 -22.65625 C 49.410156 -17.941406 53.453125 -13.769531 58.050781 -10.132812 C 67.046875 -2.96875 77.914062 1.316406 89.011719 3.945312 C 100.46875 6.65625 112.523438 7.273438 124.265625 7.519531 C 136.140625 7.761719 148.007812 7.183594 159.878906 6.851562 C 170.847656 6.542969 181.859375 6.242188 192.804688 7.128906 C 209.136719 8.449219 225.304688 12.648438 240.699219 18.148438 C 255.242188 23.332031 269.496094 29.945312 281.953125 39.171875 C 294.234375 48.265625 306.050781 59.03125 314.96875 71.503906 C 318.945312 77.0625 322.429688 83.117188 324.109375 89.785156 C 325.449219 95.101562 324.539062 100.84375 323.515625 106.132812 C 320.914062 119.597656 315.746094 132.921875 309.421875 145.066406 C 306.664062 150.359375 303.613281 155.546875 298.5625 158.960938 C 293.046875 162.683594 286.433594 163.785156 279.925781 164.328125 C 267.199219 165.382812 252.761719 163.875 241.761719 171.644531 C 238.023438 174.28125 234.242188 179.078125 234.910156 183.941406 C 235.511719 188.269531 239.269531 191.4375 242.730469 193.652344 C 245.015625 195.109375 247.195312 196.707031 249.5625 198.050781 C 250.164062 198.386719 250.78125 198.652344 251.382812 198.957031 C 251.085938 198.832031 252.269531 199.625 252.605469 199.828125 C 253.839844 200.554688 255.097656 201.25 256.371094 201.914062 C 257.617188 202.566406 258.902344 203.132812 260.226562 203.605469 C 261.378906 204.035156 262.566406 204.382812 263.742188 204.726562 C 265.8125 205.339844 267.890625 205.832031 270.003906 206.242188 C 277.386719 207.671875 284.835938 208.816406 292.1875 210.386719 C 295.917969 211.164062 299.59375 212.136719 303.222656 213.300781 C 304.972656 213.871094 306.691406 214.515625 308.410156 215.167969 L 308.839844 215.339844 C 309.136719 215.464844 309.4375 215.585938 309.734375 215.714844 C 310.757812 216.160156 311.769531 216.632812 312.773438 217.132812 C 314.320312 217.902344 315.835938 218.742188 317.3125 219.652344 C 318.1875 220.191406 319.039062 220.761719 319.886719 221.339844 L 320.191406 221.558594 C 320.648438 221.902344 321.109375 222.25 321.539062 222.621094 C 323.015625 223.816406 324.421875 225.09375 325.757812 226.449219 C 326.371094 227.070312 326.964844 227.703125 327.546875 228.34375 C 327.839844 228.675781 328.128906 229.011719 328.417969 229.347656 C 328.398438 229.324219 329.410156 230.5625 329.292969 230.410156 C 334.355469 236.675781 339.183594 243.269531 342.96875 250.382812 C 343.394531 251.179688 343.808594 251.984375 344.210938 252.796875 L 344.578125 253.5625 L 344.898438 254.285156 C 345.652344 256 346.34375 257.742188 346.9375 259.519531 C 347.503906 261.203125 348.003906 262.902344 348.4375 264.617188 C 348.65625 265.488281 348.855469 266.359375 349.042969 267.234375 L 349.222656 268.128906 C 349.195312 268.035156 349.417969 269.273438 349.417969 269.273438 C 350.75 277.742188 350.160156 286.117188 349.8125 294.339844 C 349.402344 304.039062 351.386719 313.808594 350.324219 323.476562 C 349.433594 331.582031 344.574219 338.566406 343.851562 346.808594 C 343.492188 350.921875 343.625 358.078125 348.359375 359.535156 C 352.621094 360.824219 356.945312 361.84375 361.335938 362.59375 C 369.214844 363.984375 377.121094 364.128906 385.046875 363.027344 C 399.832031 361.007812 414.320312 357.195312 429.152344 355.5 C 432.511719 355.082031 435.882812 354.871094 439.269531 354.867188 C 442.160156 354.890625 444.9375 354.746094 447.789062 355.34375 C 448.28125 355.449219 448.574219 354.675781 448.078125 354.492188 C 443.242188 352.671875 438.207031 352.527344 433.113281 352.847656 C 426.492188 353.261719 419.9375 354.289062 413.40625 355.390625 C 407.449219 356.398438 401.496094 357.457031 395.492188 358.179688 C 388.527344 359.011719 381.574219 358.921875 374.636719 357.90625 C 367.230469 356.855469 360.144531 354.84375 353.195312 352.164062 C 353.164062 349.65625 353.976562 346.980469 354.730469 344.730469 C 355.808594 341.472656 357.328125 338.320312 358.589844 335.113281 C 361.75 327.097656 362.003906 318.769531 361.71875 310.246094 C 361.566406 305.820312 361.3125 301.394531 361.398438 296.96875 C 361.476562 292.894531 362.011719 288.851562 362.171875 284.777344 C 362.472656 277.457031 361.878906 270.207031 360.378906 263.035156 C 357.527344 249.425781 350.558594 236.96875 342.058594 226.097656 C 337.152344 219.832031 332.117188 214.300781 325.496094 209.808594 C 319.71875 205.886719 313.125 203.078125 306.410156 201.171875 C 299.914062 199.328125 292.582031 198.167969 286.324219 197.386719 C 280.859375 196.703125 274.320312 196.628906 268.421875 196.007812 C 267.5625 195.917969 266.710938 195.800781 265.859375 195.683594 C 265.832031 195.679688 265.804688 195.675781 265.777344 195.671875 C 265.59375 195.644531 265.414062 195.613281 265.230469 195.582031 C 264.648438 195.484375 264.058594 195.378906 263.496094 195.273438 C 262.203125 194.988281 260.894531 194.769531 259.578125 194.617188 C 258.410156 194.480469 257.214844 194.355469 256.039062 194.191406 C 255.597656 194.125 255.160156 194.058594 254.710938 193.996094 C 254.261719 193.933594 253.914062 193.84375 253.511719 193.792969 L 253.121094 193.820312 C 252.519531 193.878906 252.605469 193.871094 253.375 193.804688 C 252.320312 193.339844 251.082031 193.160156 249.976562 192.816406 C 247.746094 192.125 245.699219 191.390625 243.761719 190.082031 C 241.226562 188.363281 237.949219 185.644531 238.355469 182.207031 C 238.871094 177.6875 245.019531 174.347656 248.660156 172.6875 C 259.859375 167.566406 273.039062 169.351562 284.933594 167.546875 C 290.480469 166.703125 296.164062 165.191406 300.949219 162.179688 C 305.6875 159.199219 309.175781 154.914062 311.980469 150.128906 C 318.128906 139.628906 322.972656 128.558594 326.515625 116.914062 C 329.695312 106.445312 332.199219 95.371094 328.429688 84.730469 C 323.988281 72.226562 314.753906 61.5625 305.386719 52.441406 C 296.152344 43.515625 286.082031 35.667969 275.175781 28.894531 C 262.304688 20.867188 248.066406 14.933594 233.664062 10.273438 C 220.382812 5.996094 206.605469 2.714844 192.675781 1.566406 C 182.953125 0.769531 173.167969 0.882812 163.429688 1.082031 C 152.785156 1.296875 142.136719 1.613281 131.488281 1.476562 C 121.105469 1.355469 110.664062 1.023438 100.433594 -0.878906 C 90.78125 -2.675781 81.191406 -4.988281 72.441406 -9.59375 C 64.058594 -14.007812 56.773438 -20.308594 51.871094 -28 C 48.957031 -32.53125 46.554688 -37.320312 44.667969 -42.367188 C 43.894531 -44.453125 41.988281 -45.933594 39.691406 -45.359375 Z M 39.691406 -45.359375 " fill-opacity="1" fill-rule="nonzero"/></g></g></g><g clip-path="url(#e6e50b6b4c)"><g clip-path="url(#d32e55cce4)"><g clip-path="url(#db43fb84a5)"><path fill="#f1573b" d="M 311.882812 180.476562 C 311.925781 180.363281 311.902344 180.34375 311.875 180.371094 L 311.855469 180.445312 Z M 311.882812 180.476562 " fill-opacity="1" fill-rule="nonzero"/></g></g></g><g clip-path="url(#07cc2d81b8)"><g clip-path="url(#1519938680)"><g clip-path="url(#2c4f8eb04b)"><path fill="#f1573b" d="M 73.511719 -40.628906 C 72.394531 -39.164062 72.875 -37.402344 74.117188 -36.226562 C 76.53125 -33.957031 78.6875 -31.527344 81.3125 -29.472656 C 83.832031 -27.496094 86.4375 -25.648438 89.132812 -23.925781 C 94.699219 -20.328125 100.5 -17.160156 106.539062 -14.425781 C 119.074219 -8.769531 132.429688 -4.9375 146.113281 -3.480469 C 152.976562 -2.714844 159.804688 -2.945312 166.597656 -4.175781 C 173.339844 -5.40625 180.066406 -6.910156 186.953125 -6.085938 C 194.613281 -5.164062 202.273438 -3.863281 209.902344 -2.722656 C 217.191406 -1.632812 224.460938 -0.445312 231.644531 1.210938 C 252.109375 5.902344 272.597656 11.640625 291.734375 20.382812 C 294.078125 21.453125 296.398438 22.570312 298.695312 23.734375 C 299.835938 24.316406 300.972656 24.902344 302.109375 25.492188 C 302.636719 25.765625 303.164062 26.042969 303.6875 26.324219 C 303.988281 26.480469 304.289062 26.652344 304.589844 26.804688 L 304.667969 26.84375 L 304.6875 26.84375 C 309.136719 29.332031 313.429688 32.070312 317.5625 35.058594 C 319.609375 36.546875 321.601562 38.109375 323.535156 39.742188 C 323.71875 39.894531 323.898438 40.054688 324.082031 40.203125 C 324.460938 40.550781 324.851562 40.894531 325.230469 41.242188 C 326.175781 42.113281 327.097656 43.003906 328.003906 43.910156 C 329.742188 45.660156 331.402344 47.480469 332.976562 49.375 C 333.734375 50.28125 334.46875 51.210938 335.179688 52.15625 C 335.3125 52.328125 335.4375 52.511719 335.570312 52.679688 C 335.894531 53.148438 336.21875 53.613281 336.566406 54.054688 C 336.664062 54.1875 337.179688 54.878906 337.140625 54.804688 C 339.78125 58.597656 342.027344 62.613281 343.886719 66.847656 L 343.941406 66.96875 L 344.160156 67.535156 C 344.363281 68.0625 344.5625 68.59375 344.75 69.128906 C 345.1875 70.363281 345.589844 71.609375 345.957031 72.863281 C 346.679688 75.269531 347.21875 77.710938 347.578125 80.195312 C 349.105469 93.023438 344.894531 106.066406 341.449219 118.25 C 339.6875 124.480469 337.714844 130.644531 335.824219 136.839844 C 334.140625 142.382812 332.523438 147.945312 329.460938 152.914062 C 326.644531 157.5 322.425781 161.539062 318.246094 164.871094 C 315.804688 166.816406 313.308594 168.609375 310.742188 170.351562 C 308.535156 171.835938 306.523438 173.453125 305.113281 175.742188 C 303.816406 177.859375 303.257812 180.132812 303.65625 182.5625 C 303.621094 182.347656 303.632812 182.253906 303.785156 183.003906 C 303.957031 184.105469 304.324219 185.140625 304.875 186.109375 C 305.703125 187.492188 306.707031 188.734375 307.886719 189.828125 C 313.140625 194.683594 320.421875 196.355469 327.21875 197.722656 C 330.363281 198.363281 333.523438 198.960938 336.597656 199.90625 C 337.296875 200.121094 337.988281 200.351562 338.671875 200.609375 L 338.726562 200.628906 C 338.769531 200.652344 338.828125 200.679688 338.910156 200.71875 C 339.28125 200.890625 339.652344 201.0625 340.015625 201.242188 C 341.484375 201.96875 342.917969 202.769531 344.324219 203.621094 C 344.929688 203.988281 345.53125 204.363281 346.121094 204.757812 C 346.378906 204.925781 346.636719 205.105469 346.890625 205.28125 L 346.988281 205.355469 C 348.265625 206.328125 349.507812 207.347656 350.695312 208.425781 C 351.8125 209.445312 352.886719 210.507812 353.914062 211.613281 C 354.191406 211.910156 354.460938 212.214844 354.734375 212.511719 L 354.894531 212.691406 L 355.371094 213.257812 C 355.695312 213.65625 356.011719 214.054688 356.324219 214.457031 C 360.09375 219.34375 363.210938 224.71875 366.011719 230.207031 C 366.320312 230.8125 366.625 231.417969 366.929688 232.023438 L 367.046875 232.257812 C 367.191406 232.5625 367.339844 232.867188 367.484375 233.175781 C 368.191406 234.664062 368.878906 236.160156 369.542969 237.652344 C 370.832031 240.574219 372.035156 243.527344 373.152344 246.519531 C 375.472656 252.753906 377.273438 259.847656 378.613281 265.523438 C 378.777344 266.214844 378.925781 266.914062 379.054688 267.613281 C 379.175781 268.230469 379.09375 267.828125 379.058594 267.691406 C 379.132812 268.09375 379.199219 268.488281 379.265625 268.890625 C 379.511719 270.449219 379.710938 272.015625 379.835938 273.589844 C 380.058594 276.339844 380.109375 279.046875 379.753906 281.53125 C 379.636719 282.332031 379.484375 283.105469 379.4375 283.921875 C 379.421875 284.167969 379.398438 284.605469 379.382812 284.726562 C 379.222656 285.894531 379.035156 287.089844 378.808594 288.261719 C 378.359375 290.761719 377.777344 293.230469 377.066406 295.667969 C 375.480469 300.867188 373.300781 305.839844 371.9375 311.121094 C 369.375 321.054688 369.054688 332.210938 376.859375 339.9375 C 383.851562 346.863281 393.792969 347.425781 403.074219 346.5625 C 413.519531 345.59375 423.890625 342.917969 433.753906 339.410156 C 437.515625 338.066406 441.039062 336.261719 444.328125 333.996094 C 445.335938 333.316406 444.5625 331.679688 443.386719 332.066406 C 440.46875 333.027344 437.484375 333.648438 434.609375 334.679688 C 430.945312 335.992188 427.210938 337.140625 423.445312 338.152344 C 415.433594 340.300781 407.164062 341.925781 398.859375 342.09375 C 391.949219 342.238281 385.222656 341.25 380.152344 336.171875 C 374.542969 330.546875 374.785156 322.179688 376.367188 314.957031 C 378.128906 306.929688 381.234375 299.359375 384.84375 292.023438 C 385.640625 290.402344 386.484375 288.800781 387.21875 287.148438 C 387.25 287.070312 387.632812 286.027344 387.398438 286.441406 C 387.746094 285.789062 388.050781 285.433594 388.300781 284.59375 C 388.652344 283.410156 388.9375 282.167969 389.195312 280.945312 C 390.136719 276.207031 390.304688 271.261719 390.03125 266.449219 C 389.453125 256.261719 386.273438 246.132812 382.65625 236.652344 C 379.121094 227.386719 375.070312 217.726562 369.203125 209.675781 C 362.328125 200.238281 352.941406 191.847656 341.527344 188.527344 C 335.472656 186.769531 329.09375 186.675781 322.949219 185.355469 C 320.535156 184.878906 318.234375 184.078125 316.039062 182.960938 C 314.8125 182.367188 313.625 181.707031 312.476562 180.972656 C 312.355469 180.890625 312.273438 180.839844 312.210938 180.796875 L 312.054688 180.617188 L 311.929688 180.472656 C 311.910156 180.53125 311.886719 180.585938 311.855469 180.640625 L 311.855469 180.621094 C 311.875 180.5625 311.894531 180.5 311.910156 180.441406 L 311.890625 180.417969 C 311.898438 180.398438 311.910156 180.382812 311.925781 180.367188 C 311.945312 180.265625 311.972656 180.167969 312.011719 180.070312 L 312.144531 179.773438 C 312.265625 179.558594 312.402344 179.351562 312.527344 179.144531 C 312.925781 178.523438 313.390625 177.949219 313.824219 177.355469 C 315.878906 174.574219 318.140625 171.96875 320.609375 169.546875 C 325.367188 164.789062 330.164062 160.242188 334 154.660156 C 338.003906 148.835938 340.300781 142.195312 342.902344 135.683594 C 345.929688 128.109375 349.019531 120.5625 351.453125 112.773438 C 356.082031 97.953125 358.769531 82.488281 355.019531 67.164062 C 352.0625 55.082031 345.789062 44.277344 337.164062 35.375 C 319.214844 16.851562 294.90625 6.222656 270.597656 -1.164062 C 258.246094 -4.90625 245.691406 -7.730469 232.988281 -10.03125 C 224.003906 -11.664062 214.945312 -12.597656 205.855469 -13.351562 C 196.613281 -14.117188 187.214844 -15.667969 177.960938 -14.457031 C 169.785156 -13.386719 162 -10.601562 153.664062 -10.777344 C 145.808594 -10.945312 138.019531 -12.160156 130.40625 -14.074219 C 114.691406 -18.019531 99.632812 -24.976562 86.585938 -34.613281 C 83.722656 -36.71875 80.566406 -38.785156 77.972656 -41.222656 C 76.679688 -42.390625 74.464844 -41.882812 73.511719 -40.628906 Z M 73.511719 -40.628906 " fill-opacity="1" fill-rule="nonzero"/></g></g></g><g clip-path="url(#5a7fe46624)"><g clip-path="url(#928a6f84cd)"><g clip-path="url(#0bf505e7ac)"><path fill="#f1573b" d="M 303.632812 182.574219 C 303.640625 182.679688 303.671875 182.8125 303.6875 182.898438 C 303.667969 182.789062 303.652344 182.6875 303.632812 182.574219 Z M 303.632812 182.574219 " fill-opacity="1" fill-rule="nonzero"/></g></g></g><g clip-path="url(#7239d7d86e)"><g clip-path="url(#971a0cc2a6)"><g clip-path="url(#ee94b24ec9)"><path fill="#f1573b" d="M 141.730469 -42.296875 C 144.03125 -42.277344 146.496094 -41.109375 148.632812 -40.347656 C 151.0625 -39.445312 153.429688 -38.398438 155.730469 -37.207031 C 160.527344 -34.796875 165.175781 -32.0625 169.988281 -29.664062 C 175.308594 -27.011719 181.289062 -25.558594 187.066406 -24.277344 C 193.273438 -22.910156 199.59375 -21.855469 205.867188 -20.824219 C 231.390625 -16.636719 257.410156 -15.480469 282.601562 -9.253906 C 300.789062 -4.753906 318.316406 2.164062 333.953125 12.40625 C 335.90625 13.691406 337.820312 15.023438 339.734375 16.375 L 340.261719 16.773438 C 340.671875 17.085938 341.078125 17.402344 341.488281 17.71875 C 342.429688 18.457031 343.363281 19.210938 344.285156 19.984375 C 347.847656 22.964844 351.1875 26.179688 354.308594 29.621094 L 354.542969 29.894531 C 354.890625 30.320312 355.253906 30.738281 355.601562 31.164062 C 356.332031 32.058594 357.042969 32.972656 357.734375 33.902344 C 359.054688 35.683594 360.300781 37.519531 361.464844 39.417969 C 362.023438 40.324219 362.558594 41.242188 363.074219 42.167969 C 363.292969 42.558594 363.527344 42.949219 363.71875 43.351562 C 363.847656 43.632812 363.980469 43.933594 364.058594 44.066406 C 365.011719 46.066406 365.863281 48.105469 366.613281 50.191406 C 366.976562 51.199219 367.3125 52.21875 367.621094 53.242188 C 367.789062 53.808594 367.949219 54.355469 368.105469 54.917969 C 368.164062 55.140625 368.253906 55.394531 368.328125 55.601562 L 368.230469 55.359375 C 369.078125 57.441406 369.261719 60.136719 369.554688 62.355469 C 370.292969 67.886719 370.308594 72.484375 370.167969 77.375 C 370.046875 82.640625 369.507812 87.863281 368.554688 93.042969 L 368.394531 93.875 L 368.363281 94.054688 C 368.238281 94.597656 368.105469 95.136719 367.976562 95.679688 C 367.867188 96.15625 367.753906 96.636719 367.664062 97.113281 L 367.546875 97.613281 C 367.386719 98.257812 367.230469 98.902344 367.0625 99.539062 C 366.382812 102.042969 365.574219 104.5 364.632812 106.917969 C 362.601562 112.199219 360.007812 116.992188 357.394531 122.289062 C 354.777344 127.582031 352.339844 132.964844 350.207031 138.460938 C 348.078125 143.953125 346.3125 149.65625 345.5 155.507812 C 344.800781 160.542969 344.375 166.128906 346.054688 171.027344 C 348.757812 178.933594 355.621094 183.976562 362.597656 187.953125 C 370.179688 192.28125 378.335938 195.269531 385.058594 200.96875 C 385.984375 201.75 386.222656 201.929688 387.347656 202.886719 C 388.472656 203.839844 389.511719 204.804688 390.519531 205.820312 C 392.355469 207.640625 394.066406 209.5625 395.660156 211.597656 C 398.605469 215.359375 401.015625 219.441406 402.878906 223.84375 C 403.007812 224.144531 403.375 225.121094 403.167969 224.554688 C 403.359375 225.070312 403.53125 225.582031 403.71875 226.097656 C 404.117188 227.273438 404.46875 228.460938 404.773438 229.660156 C 405.066406 230.796875 405.324219 231.9375 405.539062 233.078125 C 405.621094 233.527344 405.703125 233.976562 405.777344 234.425781 C 405.773438 234.375 405.925781 235.6875 405.957031 235.953125 C 406.558594 241.429688 406.265625 246.921875 406.351562 252.410156 C 406.398438 255.589844 406.492188 258.777344 406.496094 261.960938 C 406.503906 265.144531 406.53125 267.164062 406.28125 270.046875 C 406.1875 271.351562 406.011719 272.648438 405.761719 273.933594 C 405.703125 274.203125 405.488281 274.957031 405.511719 274.921875 C 405.316406 275.488281 405.117188 276.054688 404.886719 276.609375 C 404.441406 277.6875 403.941406 278.742188 403.378906 279.765625 C 403.261719 279.988281 403.121094 280.207031 403.015625 280.425781 C 402.683594 280.964844 402.347656 281.5 402 282.035156 C 399.273438 286.238281 395.890625 290.4375 394.328125 295.25 C 392.714844 300.21875 392.691406 305.242188 393.359375 310.375 C 394.394531 318.316406 399.71875 324.34375 407.125 327.085938 C 410.558594 328.328125 414.097656 328.890625 417.746094 328.769531 C 421.761719 328.675781 425.457031 328.503906 429.027344 327.929688 C 432.210938 327.410156 435.335938 326.671875 438.414062 325.714844 C 441.09375 324.914062 441.136719 320.234375 437.9375 320.46875 C 434.503906 320.714844 431.597656 320.820312 428.296875 320.839844 C 424.996094 320.863281 421.558594 320.90625 418.292969 320.261719 C 417.507812 320.105469 416.734375 319.902344 415.960938 319.699219 C 415.550781 319.589844 413.53125 319.109375 414.71875 319.382812 C 414.308594 319.289062 413.898438 319.195312 413.488281 319.089844 C 411.964844 318.667969 410.480469 318.140625 409.035156 317.507812 C 409.027344 317.507812 409.019531 317.511719 409.011719 317.511719 L 408.984375 317.496094 C 408.660156 317.285156 408.320312 317.105469 407.992188 316.894531 C 407.382812 316.503906 406.855469 316.011719 406.269531 315.597656 C 406.203125 315.53125 406.132812 315.46875 406.070312 315.398438 C 405.855469 315.152344 405.636719 314.914062 405.4375 314.664062 C 405.242188 314.410156 405.039062 314.144531 404.847656 313.878906 L 404.765625 313.761719 C 404.667969 313.59375 404.574219 313.425781 404.488281 313.25 C 403.707031 311.636719 403.503906 310.902344 403.289062 309.035156 C 403.214844 308.253906 403.25 307.480469 403.386719 306.714844 C 403.453125 306.25 403.527344 305.78125 403.617188 305.324219 L 403.738281 304.703125 C 403.738281 304.6875 403.796875 304.527344 403.863281 304.296875 C 403.808594 304.492188 404.382812 302.160156 404.15625 303.070312 C 404.007812 303.644531 404.214844 302.820312 404.230469 302.777344 C 404.40625 302.203125 404.589844 301.636719 404.808594 301.078125 C 405.238281 299.964844 405.785156 298.902344 406.308594 297.839844 L 406.71875 297.050781 C 406.867188 296.804688 407.304688 296.058594 407.398438 295.902344 C 408.046875 294.875 408.722656 293.867188 409.410156 292.867188 C 412.378906 288.503906 415.566406 284.070312 417.132812 278.96875 C 419.117188 272.515625 419.082031 265.585938 418.890625 258.886719 C 418.585938 248.039062 419.136719 236.835938 416.171875 226.289062 C 413.308594 216.125 407.414062 207.675781 399.253906 201.0625 C 395.210938 197.785156 391.242188 195.21875 386.867188 193.390625 C 382.96875 191.757812 379.050781 190.210938 375.226562 188.363281 C 368.035156 184.882812 359.441406 181.328125 354.324219 174.910156 C 351.753906 171.6875 351.105469 168.410156 351.296875 164.371094 C 351.574219 158.601562 353.191406 152.867188 355.164062 147.464844 C 357.136719 142.09375 359.59375 136.953125 362.535156 132.042969 C 365.390625 127.265625 368.757812 122.855469 371.390625 117.941406 C 376.625 108.179688 380.296875 97.90625 381.84375 86.921875 C 382.558594 81.546875 382.910156 76.148438 382.898438 70.726562 C 382.921875 65.261719 382.789062 59.816406 381.621094 54.449219 C 377.503906 35.570312 365.597656 19.625 350.511719 7.921875 C 335.035156 -4.070312 316.792969 -12.503906 297.996094 -17.839844 C 288.007812 -20.667969 277.824219 -22.582031 267.558594 -24.074219 C 254.335938 -25.996094 240.996094 -27.472656 227.648438 -28.308594 C 221.09375 -28.703125 214.585938 -28.964844 208.007812 -28.9375 C 201.609375 -28.914062 195.265625 -29.5 188.976562 -30.6875 C 183.046875 -31.800781 176.742188 -32.855469 171.207031 -35.328125 C 166.164062 -37.582031 161.675781 -41.003906 156.828125 -43.644531 C 154.605469 -44.886719 152.277344 -45.882812 149.84375 -46.632812 C 147.238281 -47.410156 144.859375 -47.179688 142.210938 -47.203125 C 138.996094 -47.265625 138.539062 -42.316406 141.730469 -42.296875 Z M 141.730469 -42.296875 " fill-opacity="1" fill-rule="nonzero"/></g></g></g><g clip-path="url(#66a7b1a1f0)"><g clip-path="url(#a9edb2112b)"><g clip-path="url(#ca5b43ca65)"><path fill="#f1573b" d="M 273.765625 -55.273438 C 271.390625 -54.753906 270.007812 -52.65625 270.847656 -50.28125 C 271.425781 -48.546875 272.472656 -47.179688 273.992188 -46.167969 C 275.078125 -45.414062 276.171875 -44.652344 277.304688 -43.96875 C 280.070312 -42.324219 282.953125 -40.929688 285.960938 -39.78125 C 291.472656 -37.632812 297.089844 -35.757812 302.71875 -33.9375 C 308.675781 -32.011719 314.664062 -30.167969 320.605469 -28.203125 C 323.570312 -27.222656 326.515625 -26.199219 329.453125 -25.132812 C 330.835938 -24.621094 332.226562 -24.097656 333.613281 -23.558594 C 334.300781 -23.289062 334.988281 -23.015625 335.671875 -22.738281 C 335.949219 -22.628906 336.21875 -22.515625 336.492188 -22.40625 L 336.828125 -22.265625 C 336.929688 -22.222656 337.039062 -22.179688 337.144531 -22.132812 C 342.78125 -19.757812 348.203125 -16.957031 353.398438 -13.730469 C 354.003906 -13.347656 354.613281 -12.949219 355.199219 -12.558594 C 355.503906 -12.363281 355.808594 -12.164062 356.089844 -11.960938 C 356.144531 -11.921875 356.203125 -11.882812 356.265625 -11.847656 L 356.433594 -11.722656 C 357.835938 -10.707031 359.207031 -9.648438 360.535156 -8.546875 C 361.707031 -7.558594 362.84375 -6.527344 363.9375 -5.449219 C 364.453125 -4.9375 364.957031 -4.421875 365.449219 -3.894531 C 365.757812 -3.605469 366.042969 -3.296875 366.300781 -2.960938 L 365.824219 -3.503906 C 366.003906 -3.296875 366.179688 -3.085938 366.351562 -2.878906 C 368.09375 -0.769531 369.679688 1.445312 371.113281 3.769531 C 371.769531 4.835938 372.390625 5.921875 372.976562 7.023438 L 373.15625 7.351562 L 373.289062 7.601562 L 373.328125 7.695312 C 373.664062 8.371094 374.003906 9.050781 374.324219 9.734375 C 376.785156 14.882812 378.929688 20.1875 381.625 25.222656 C 385.019531 31.558594 388.914062 37.238281 394.261719 42.082031 C 396.921875 44.492188 399.878906 46.832031 403.355469 47.875 C 406.421875 48.8125 409.449219 49.789062 412.683594 49.808594 C 414.96875 49.828125 415.925781 46.136719 413.4375 45.648438 C 411.113281 45.191406 408.511719 44.339844 406.8125 42.714844 C 404.535156 40.535156 402.832031 39.152344 400.640625 36.640625 C 398.757812 34.414062 397.035156 32.066406 395.476562 29.601562 C 395.289062 29.320312 395.105469 29.035156 394.929688 28.746094 L 394.6875 28.351562 L 394.359375 27.816406 C 394.167969 27.488281 393.976562 27.152344 393.792969 26.816406 C 393.128906 25.621094 392.535156 24.398438 391.960938 23.167969 C 387.175781 12.9375 384.050781 1.390625 377.171875 -7.722656 C 369.460938 -17.945312 358.421875 -25.171875 346.953125 -30.566406 C 335.480469 -35.960938 323.402344 -39.941406 311.324219 -43.726562 C 305.0625 -45.691406 298.792969 -47.648438 292.632812 -49.902344 C 289.664062 -50.988281 286.695312 -52.03125 283.738281 -53.175781 C 282.316406 -53.726562 280.855469 -54.125 279.414062 -54.617188 C 278.472656 -54.9375 277.464844 -55.476562 276.476562 -55.5625 C 275.558594 -55.609375 274.652344 -55.515625 273.765625 -55.273438 Z M 273.765625 -55.273438 " fill-opacity="1" fill-rule="nonzero"/></g></g></g></g></g></g><g mask="url(#fb00436f51)"><g transform="matrix(1, 0, 0, 1, 0, 747)"><g clip-path="url(#5c1d094016)"><g clip-path="url(#b860aea0b1)"><g clip-path="url(#979e3a3d37)"><g clip-path="url(#efa513ccfe)"><path fill="#5bd5c1" d="M 154.796875 378.820312 C 154.824219 378.886719 154.8125 378.746094 154.695312 378.128906 L 154.710938 378.164062 C 154.734375 378.390625 154.765625 378.601562 154.796875 378.820312 Z M 154.796875 378.820312 " fill-opacity="1" fill-rule="nonzero"/></g></g></g><g clip-path="url(#7184e3b444)"><g clip-path="url(#eb7593d68f)"><g clip-path="url(#57cb8272ea)"><path fill="#5bd5c1" d="M 422.027344 429.679688 C 418.835938 420 414.421875 411.246094 408.066406 403.207031 C 402.425781 396.109375 395.828125 390.054688 388.277344 385.042969 C 372.5625 374.582031 354.082031 368.941406 335.320312 367.738281 C 315.460938 366.464844 296.769531 375.074219 279.996094 384.761719 C 270.601562 390.183594 261.378906 396.09375 252.046875 400.882812 C 247.730469 403.121094 243.304688 405.109375 238.765625 406.847656 C 236.578125 407.671875 234.363281 408.425781 232.121094 409.085938 C 230.382812 409.613281 228.621094 410.039062 226.832031 410.355469 C 214.210938 412.667969 200.574219 410.804688 188.140625 406.910156 C 181.453125 404.824219 175.121094 402.191406 169.296875 398.394531 C 167.84375 397.445312 166.425781 396.433594 165.0625 395.351562 L 164.886719 395.210938 C 164.925781 395.246094 164.722656 395.085938 164.5625 394.949219 L 164.265625 394.710938 L 164.523438 394.914062 L 164.433594 394.832031 C 163.695312 394.152344 162.957031 393.484375 162.25 392.769531 C 161.21875 391.726562 160.246094 390.628906 159.335938 389.476562 C 159.128906 389.214844 158.9375 388.945312 158.734375 388.683594 L 158.699219 388.609375 C 158.289062 387.933594 157.859375 387.273438 157.472656 386.582031 C 157.085938 385.890625 156.730469 385.195312 156.402344 384.480469 C 156.28125 384.191406 156.15625 383.902344 156.023438 383.621094 C 155.621094 382.140625 155.132812 380.710938 154.871094 379.1875 C 154.851562 379.066406 154.835938 378.941406 154.816406 378.820312 C 154.765625 378.640625 154.734375 378.460938 154.722656 378.277344 L 154.71875 378.167969 L 154.691406 377.992188 L 154.71875 378.128906 C 154.679688 377.34375 154.640625 376.566406 154.664062 375.773438 C 154.683594 374.984375 154.710938 374.234375 154.777344 373.46875 C 154.816406 373.027344 154.878906 372.597656 154.917969 372.15625 C 154.765625 373.753906 154.960938 371.988281 155.007812 371.734375 C 155.332031 370.046875 155.761719 368.382812 156.300781 366.75 C 156.472656 366.226562 156.660156 365.710938 156.847656 365.195312 L 156.890625 365.113281 C 157.332031 364.230469 157.757812 363.351562 158.273438 362.507812 C 158.519531 362.089844 159.929688 360.3125 158.839844 361.570312 C 159.386719 360.9375 159.898438 360.289062 160.484375 359.6875 C 160.945312 359.214844 161.449219 358.785156 161.921875 358.328125 C 161.96875 358.28125 162.003906 358.246094 162.039062 358.207031 L 162.011719 358.21875 C 162.417969 357.933594 162.8125 357.640625 163.21875 357.367188 C 164.488281 356.558594 165.800781 355.820312 167.152344 355.160156 C 167.179688 355.144531 167.203125 355.136719 167.230469 355.125 C 167.613281 354.988281 167.984375 354.804688 168.367188 354.664062 C 169.179688 354.359375 170.019531 354.066406 170.855469 353.796875 C 174.25 352.75 177.703125 351.929688 181.207031 351.335938 C 181.148438 351.359375 182.460938 351.121094 182.796875 351.078125 C 183.753906 350.929688 184.71875 350.785156 185.679688 350.644531 C 187.625 350.363281 189.570312 350.105469 191.515625 349.832031 C 195.65625 349.261719 199.8125 348.671875 203.910156 347.824219 C 211.265625 346.300781 218.515625 344.082031 224.859375 339.9375 C 231.902344 335.328125 237.171875 327.871094 239.597656 319.84375 C 244.402344 303.953125 238.828125 287.0625 229.070312 274.210938 C 207.769531 246.164062 168.324219 239.878906 135.46875 244.65625 C 127.742188 245.78125 120.070312 247.175781 112.304688 248.046875 C 108.78125 248.441406 105.242188 248.714844 101.691406 248.773438 C 98.414062 248.894531 95.152344 248.707031 91.90625 248.210938 C 88.597656 247.710938 85.34375 246.964844 82.148438 245.964844 C 83.253906 246.300781 82.125 245.972656 81.847656 245.871094 C 81.433594 245.730469 81.007812 245.570312 80.589844 245.410156 C 79.828125 245.125 79.074219 244.820312 78.320312 244.492188 C 76.617188 243.761719 74.945312 242.945312 73.320312 242.054688 C 66.386719 238.246094 59.757812 232.539062 54.933594 226.648438 C 48.730469 219.074219 45.066406 211.21875 42.609375 201.511719 C 40.246094 192.214844 39.257812 182.625 37.429688 173.222656 C 35.683594 164.25 33.609375 154.550781 28.980469 146.5625 C 25.550781 140.625 20.777344 135.734375 14.757812 132.402344 C 2.28125 125.480469 -12.289062 124.585938 -26.277344 125.605469 C -39.738281 126.597656 -53.015625 129.65625 -65.820312 133.859375 C -75.546875 137.046875 -84.367188 142.207031 -93.46875 146.816406 C -99.574219 149.910156 -105.75 152.875 -111.953125 155.757812 C -114.886719 157.125 -117.863281 158.417969 -120.890625 159.554688 C -121.546875 159.800781 -122.199219 160.054688 -122.863281 160.269531 C -123.691406 160.539062 -121.765625 159.902344 -123.152344 160.332031 C -123.167969 160.339844 -124.320312 160.71875 -124.367188 160.742188 C -125.597656 161.117188 -126.84375 161.445312 -128.097656 161.722656 C -128.734375 161.863281 -129.375 161.992188 -130.015625 162.101562 C -130.285156 162.148438 -131.753906 162.359375 -131.253906 162.3125 C -130.449219 162.21875 -134.859375 162.894531 -133.191406 162.636719 C -133.386719 162.667969 -134.601562 162.753906 -134.351562 162.761719 C -135.03125 162.78125 -135.707031 162.753906 -136.382812 162.679688 C -136.300781 162.667969 -137.175781 162.46875 -137.335938 162.417969 C -137.5 162.367188 -137.574219 162.347656 -137.628906 162.335938 C -137.722656 162.265625 -137.820312 162.203125 -137.921875 162.144531 C -140.914062 160.394531 -144.589844 164.152344 -142.058594 166.898438 C -139.636719 169.542969 -136.300781 170.640625 -132.867188 171.1875 C -130.394531 171.851562 -127.410156 171.261719 -124.988281 170.898438 C -122.179688 170.460938 -119.410156 169.855469 -116.671875 169.089844 C -113.316406 168.179688 -110 167.09375 -106.722656 165.960938 C -105.894531 165.671875 -105.070312 165.382812 -104.25 165.085938 C -104.070312 165.011719 -103.878906 164.953125 -103.707031 164.890625 C -103.570312 164.851562 -102.28125 164.417969 -102.257812 164.410156 C -100.617188 163.773438 -99 163.03125 -97.390625 162.316406 C -87.222656 157.859375 -77.417969 152.5625 -67.167969 148.289062 C -65.183594 147.453125 -63.109375 146.78125 -61.074219 146.121094 L -60.347656 145.890625 C -59.734375 145.710938 -59.128906 145.515625 -58.515625 145.335938 C -57.03125 144.894531 -55.539062 144.472656 -54.039062 144.070312 C -47.816406 142.398438 -41.515625 141.089844 -35.144531 140.136719 C -28.5 139.160156 -22.207031 138.621094 -15.777344 138.8125 C -12.550781 138.898438 -9.339844 139.179688 -6.144531 139.660156 C -4.902344 139.851562 -3.671875 140.085938 -2.441406 140.347656 C -2.417969 140.359375 -1.628906 140.542969 -1.195312 140.660156 C -0.28125 140.914062 0.625 141.191406 1.523438 141.492188 C 2.84375 141.933594 4.140625 142.4375 5.414062 143.003906 C 5.96875 143.25 6.511719 143.523438 7.0625 143.789062 C 7.230469 143.871094 8.480469 144.636719 7.453125 143.976562 C 6.425781 143.320312 7.796875 144.195312 8.003906 144.320312 C 9.210938 145.054688 10.363281 145.863281 11.460938 146.75 C 11.925781 147.101562 12.324219 147.507812 12.773438 147.867188 C 13.015625 148.132812 13.28125 148.378906 13.519531 148.648438 C 14.484375 149.707031 15.363281 150.832031 16.160156 152.019531 C 16.585938 152.660156 17.136719 153.785156 16.449219 152.4375 C 16.84375 153.210938 17.265625 153.96875 17.625 154.757812 C 19.476562 158.828125 20.8125 163.171875 21.855469 167.515625 C 26.226562 185.710938 26.648438 205.171875 35.5 222.070312 C 43.949219 238.203125 59.519531 251.128906 76.835938 256.765625 C 90.671875 261.277344 106.160156 259.867188 120.21875 256.925781 C 127.945312 255.3125 135.503906 252.933594 143.273438 251.53125 C 151.367188 250.066406 159.769531 249.808594 167.988281 250.367188 C 184.65625 251.515625 201.871094 256.8125 214.714844 267.886719 C 225.347656 277.050781 233.984375 291.375 232.792969 305.835938 C 232.183594 313.167969 229.355469 319.269531 224.519531 324.597656 C 224.15625 325 223.78125 325.394531 223.398438 325.785156 C 223.242188 325.941406 222.410156 326.703125 223.28125 325.882812 C 222.851562 326.285156 222.542969 326.574219 222.328125 326.773438 C 222.058594 327.015625 221.789062 327.25 221.507812 327.480469 C 220.136719 328.582031 218.691406 329.574219 217.171875 330.460938 C 217.046875 330.539062 216.769531 330.683594 216.597656 330.769531 C 216.425781 330.859375 216.222656 330.957031 216.035156 331.046875 C 215.308594 331.386719 214.574219 331.707031 213.832031 332.003906 C 212.226562 332.640625 210.59375 333.195312 208.933594 333.664062 C 194.980469 337.65625 180.007812 336.820312 166.175781 341.425781 C 158.53125 343.96875 151.890625 348.175781 147.25 354.847656 C 142.960938 361.003906 140.78125 369.503906 141.125 376.957031 C 142.574219 408.160156 179.914062 421.320312 206.078125 423.589844 C 212.726562 424.164062 219.5625 424.238281 226.175781 423.222656 C 234.894531 421.878906 243.347656 418.6875 251.257812 414.863281 C 270.136719 405.71875 287.085938 392.832031 306.585938 384.90625 C 314.480469 381.707031 323.554688 379.636719 332.382812 379.6875 C 336.878906 379.714844 341.367188 380.277344 345.796875 381.046875 C 349.839844 381.738281 353.828125 382.671875 357.757812 383.847656 C 373.765625 388.859375 388.285156 397.539062 399.234375 410.773438 C 404.585938 417.230469 409.042969 424.910156 411.675781 432.902344 C 413.871094 439.53125 424.210938 436.304688 422.027344 429.679688 Z M 422.027344 429.679688 " fill-opacity="1" fill-rule="nonzero"/></g></g></g><g clip-path="url(#1dec4b7cc1)"><g clip-path="url(#3cc3f97d5a)"><g clip-path="url(#cfd794db80)"><path fill="#5bd5c1" d="M 164.878906 395.210938 L 164.515625 394.921875 L 164.554688 394.953125 Z M 164.878906 395.210938 " fill-opacity="1" fill-rule="nonzero"/></g></g></g><g clip-path="url(#49997de374)"><g clip-path="url(#e1de93b9ac)"><g clip-path="url(#8fd887fb8c)"><path fill="#5bd5c1" d="M 402.84375 432.265625 C 400.441406 423.023438 393.214844 417.96875 385.285156 413.539062 C 376.71875 408.710938 367.808594 404.640625 358.554688 401.324219 C 349.605469 398.15625 340.285156 395.890625 330.792969 395.296875 C 321.855469 394.734375 314.011719 397.28125 306.875 402.585938 C 303.621094 405 300.585938 407.714844 297.386719 410.179688 C 293.5625 413.128906 289.492188 415.691406 285.179688 417.867188 C 276.199219 422.40625 266.515625 425.347656 256.675781 427.332031 C 247.039062 429.269531 237.289062 430.371094 227.523438 431.484375 C 222.664062 432.035156 217.800781 432.605469 212.941406 433.285156 C 208.714844 433.867188 204.515625 434.765625 200.285156 435.203125 C 185.621094 436.730469 171.328125 433.824219 157.285156 429.917969 C 155.371094 428.695312 153.109375 427.863281 151.113281 426.824219 C 148.902344 425.667969 146.53125 424.8125 144.253906 423.773438 C 139.65625 421.664062 135.207031 419.28125 130.902344 416.628906 L 130.722656 416.515625 L 130.292969 416.242188 C 129.792969 415.902344 129.289062 415.570312 128.792969 415.230469 C 127.734375 414.503906 126.6875 413.757812 125.652344 412.992188 C 123.765625 411.582031 121.929688 410.097656 120.152344 408.542969 C 119.28125 407.773438 118.417969 407 117.566406 406.214844 C 116.789062 405.5 115.417969 404.597656 114.921875 403.660156 C 114.914062 403.644531 115.894531 404.722656 115.359375 404.101562 C 115.195312 403.921875 115.023438 403.753906 114.863281 403.578125 C 114.484375 403.167969 114.105469 402.75 113.734375 402.332031 C 112.941406 401.441406 112.179688 400.527344 111.449219 399.59375 C 110.058594 397.816406 108.765625 395.96875 107.578125 394.050781 L 107.371094 393.714844 L 107.277344 393.496094 C 107.070312 393.09375 106.847656 392.691406 106.640625 392.289062 C 106.125 391.277344 105.648438 390.246094 105.207031 389.203125 C 104.796875 388.230469 104.421875 387.242188 104.050781 386.246094 C 103.867188 385.753906 103.6875 385.261719 103.523438 384.761719 L 103.386719 384.335938 C 103.382812 384.351562 103.378906 384.363281 103.375 384.375 C 103.378906 384.363281 103.382812 384.347656 103.386719 384.332031 L 103.316406 384.117188 C 103.070312 383.394531 103.285156 383.523438 103.382812 383.847656 C 103.261719 383.105469 102.792969 381.953125 102.710938 381.511719 C 102.488281 380.390625 102.3125 379.265625 102.183594 378.132812 C 102.121094 377.601562 102.070312 377.070312 102.027344 376.535156 C 101.996094 376.132812 101.980469 375.675781 101.972656 375.570312 C 101.964844 374.613281 101.980469 373.65625 102.035156 372.699219 C 102.097656 371.65625 102.195312 370.617188 102.324219 369.582031 C 102.398438 369.011719 102.472656 368.449219 102.578125 367.878906 C 102.628906 367.566406 102.699219 367.253906 102.742188 366.941406 C 103.324219 364.527344 104.042969 362.15625 104.898438 359.824219 C 105.332031 358.703125 105.800781 357.582031 106.296875 356.46875 L 106.554688 355.929688 L 106.660156 355.710938 C 107.027344 355.003906 107.390625 354.296875 107.769531 353.601562 C 110.898438 347.894531 114.039062 343.042969 118.648438 338.925781 C 120.972656 336.847656 123.511719 335.078125 126.269531 333.621094 C 128.953125 332.136719 131.730469 330.851562 134.597656 329.765625 C 147.480469 324.949219 161.265625 323.261719 174.558594 319.96875 C 183.136719 317.84375 192.046875 315.226562 199.160156 309.785156 C 202.429688 307.28125 205.1875 304.273438 206.542969 300.324219 C 207.941406 296.289062 206.972656 292.195312 205.097656 288.480469 C 201.144531 280.644531 190.742188 277.179688 182.980469 274.675781 C 173.613281 271.644531 163.917969 269.699219 154.234375 267.992188 C 142.652344 265.953125 131.289062 266.414062 119.738281 268.40625 C 108.03125 270.410156 96.441406 273.449219 84.535156 274.03125 C 78.195312 274.347656 71.933594 273.789062 65.753906 272.355469 C 59.570312 270.925781 53.699219 268.675781 48.144531 265.609375 C 37.351562 259.722656 27.753906 251.523438 19.917969 242.085938 C 12.148438 232.734375 5.558594 221.535156 3.183594 209.507812 C 2.039062 203.726562 1.597656 197.796875 2.339844 191.945312 C 2.957031 187.046875 4.347656 182.277344 4.882812 177.363281 C 5.371094 172.914062 4.792969 168.261719 2.292969 164.449219 C -0.976562 159.484375 -5.785156 156.140625 -11.234375 153.929688 C -16.476562 151.804688 -21.632812 150.378906 -27.316406 150.140625 C -33.003906 149.902344 -38.761719 150.613281 -44.3125 151.914062 C -56.351562 154.734375 -67.542969 160.671875 -78.589844 166.0625 C -91.265625 172.253906 -103.945312 178.882812 -117.492188 182.949219 C -123.820312 184.851562 -130.511719 186.292969 -137.097656 186.851562 C -138.078125 186.9375 -138.066406 188.371094 -137.074219 188.390625 C -119.015625 188.707031 -102.109375 179.785156 -86.597656 171.480469 C -71.347656 163.3125 -56.027344 154.339844 -38.558594 152.117188 C -30.808594 151.136719 -22.660156 151.457031 -15.332031 154.371094 C -11.296875 155.976562 -8.410156 158.960938 -5.433594 162.027344 C -3.175781 164.351562 -1.242188 167.074219 -0.476562 170.265625 C 0.917969 176.082031 -1.660156 182.226562 -2.628906 187.914062 C -3.308594 191.78125 -3.5625 195.675781 -3.386719 199.597656 C -3.214844 203.519531 -2.617188 207.378906 -1.601562 211.171875 C 2.714844 227.152344 11.671875 241.355469 23.492188 252.867188 C 35.277344 264.34375 49.863281 273.773438 66.132812 277.167969 C 82.367188 280.570312 98.484375 276.972656 114.410156 273.921875 C 122.277344 272.410156 130.230469 271.136719 138.25 271.050781 C 145.035156 270.980469 151.652344 272.089844 158.292969 273.28125 C 164.9375 274.46875 171.671875 275.855469 178.234375 277.695312 C 184.464844 279.445312 190.84375 281.496094 196.308594 285.035156 C 200.363281 287.65625 203.847656 292.152344 202.597656 297.285156 C 201.453125 301.996094 196.269531 304.777344 192.15625 306.507812 C 179.25 311.933594 164.988281 313.234375 151.132812 315.210938 C 141.835938 316.539062 132.53125 318.277344 123.8125 321.878906 C 119.417969 323.6875 115.335938 326.042969 111.566406 328.941406 C 107.796875 331.839844 104.472656 335.179688 101.59375 338.964844 C 92.703125 350.527344 87.234375 364.761719 88.214844 379.472656 C 89.097656 392.773438 96.21875 404.207031 105.375 413.476562 C 114.683594 422.910156 127.015625 429.546875 139.355469 434.128906 C 142.738281 435.390625 146.03125 436.523438 149.59375 437.125 C 153.003906 437.699219 156.148438 438.191406 159.523438 438.878906 C 166.121094 440.261719 172.789062 441.070312 179.527344 441.304688 C 185.722656 441.511719 191.886719 441.136719 198.011719 440.179688 C 201.601562 439.601562 205.125 438.738281 208.722656 438.160156 C 213.605469 437.347656 218.511719 436.703125 223.425781 436.09375 C 242.386719 433.753906 261.792969 432.023438 279.664062 424.8125 C 288.492188 421.25 296.277344 416.300781 303.675781 410.351562 C 310 405.269531 316.34375 400.445312 324.742188 399.804688 C 334.085938 399.09375 343.933594 401.652344 352.78125 404.417969 C 362.015625 407.304688 370.90625 411.261719 379.449219 415.796875 C 386.84375 419.722656 395.816406 424.09375 398.105469 432.910156 C 398.890625 435.808594 403.609375 435.222656 402.84375 432.265625 Z M 402.84375 432.265625 " fill-opacity="1" fill-rule="nonzero"/></g></g></g><g clip-path="url(#8ebbd99282)"><g clip-path="url(#f086004388)"><g clip-path="url(#2f22295a0a)"><path fill="#5bd5c1" d="M 103.394531 384.359375 C 103.445312 384.195312 103.445312 384.03125 103.394531 383.867188 C 103.429688 384.03125 103.429688 384.191406 103.394531 384.355469 Z M 103.394531 384.359375 " fill-opacity="1" fill-rule="nonzero"/></g></g></g><g clip-path="url(#f057dc009c)"><g clip-path="url(#930ecc8642)"><g clip-path="url(#9e6ff5d029)"><path fill="#5bd5c1" d="M 389.5 451.453125 C 391.203125 450.355469 392.109375 447.53125 390.71875 445.804688 C 386.421875 440.457031 381.917969 435.910156 376.285156 431.972656 C 371.464844 428.632812 366.292969 425.980469 360.765625 424.023438 C 349.945312 420.140625 338.277344 419.585938 326.917969 420.671875 C 315.199219 421.796875 303.589844 425.097656 292.398438 428.648438 C 281.078125 432.246094 270.027344 436.617188 258.894531 440.757812 C 248.613281 444.585938 238.285156 448.417969 227.640625 451.105469 C 211.753906 455.117188 195.09375 456.351562 178.75 456.105469 C 163.308594 455.882812 147.6875 454.21875 132.917969 449.5 C 118.363281 444.847656 103.707031 438.460938 91.246094 429.527344 C 85.691406 425.546875 80.441406 420.941406 76.703125 415.167969 C 73.722656 410.566406 72.730469 404.839844 71.996094 399.503906 C 70.121094 385.914062 70.71875 371.636719 72.792969 358.101562 C 73.699219 352.203125 74.914062 346.308594 78.597656 341.449219 C 82.621094 336.148438 88.523438 332.976562 94.511719 330.363281 C 106.21875 325.261719 120.371094 322.039062 128.28125 311.140625 C 130.96875 307.4375 133.003906 301.679688 130.804688 297.289062 C 128.839844 293.386719 124.261719 291.597656 120.269531 290.621094 C 117.636719 289.976562 115.058594 289.167969 112.386719 288.65625 C 111.707031 288.53125 111.039062 288.480469 110.371094 288.386719 C 110.691406 288.40625 109.316406 288.035156 108.933594 287.953125 C 107.527344 287.664062 106.117188 287.410156 104.695312 287.191406 C 103.304688 286.976562 101.90625 286.855469 100.5 286.832031 C 99.273438 286.796875 98.035156 286.851562 96.8125 286.902344 C 94.65625 286.992188 92.53125 287.195312 90.394531 287.488281 C 82.945312 288.511719 75.527344 289.832031 68.0625 290.714844 C 64.277344 291.175781 60.484375 291.441406 56.671875 291.511719 C 54.835938 291.535156 53 291.480469 51.164062 291.414062 L 50.699219 291.390625 C 50.378906 291.367188 50.054688 291.347656 49.734375 291.324219 C 48.621094 291.230469 47.507812 291.109375 46.402344 290.960938 C 44.683594 290.730469 42.980469 290.421875 41.289062 290.039062 C 40.285156 289.808594 39.296875 289.546875 38.308594 289.273438 L 37.949219 289.160156 C 37.40625 288.984375 36.855469 288.800781 36.332031 288.589844 C 34.546875 287.933594 32.804688 287.179688 31.105469 286.324219 C 30.324219 285.933594 29.558594 285.527344 28.800781 285.105469 C 28.414062 284.886719 28.035156 284.664062 27.652344 284.4375 C 27.679688 284.453125 26.320312 283.609375 26.480469 283.714844 C 19.671875 279.414062 12.972656 274.726562 7.101562 269.214844 C 6.4375 268.597656 5.785156 267.96875 5.148438 267.328125 L 4.554688 266.722656 L 4.015625 266.144531 C 2.75 264.761719 1.53125 263.332031 0.394531 261.84375 C -0.683594 260.433594 -1.703125 258.984375 -2.664062 257.5 C -3.152344 256.746094 -3.621094 255.984375 -4.078125 255.214844 L -4.539062 254.425781 C -4.484375 254.507812 -5.09375 253.410156 -5.09375 253.410156 C -9.082031 245.820312 -11.222656 237.703125 -13.542969 229.804688 C -16.28125 220.492188 -21.308594 211.886719 -23.417969 202.390625 C -25.1875 194.425781 -22.835938 186.25 -24.808594 178.21875 C -25.792969 174.207031 -28.226562 167.472656 -33.175781 167.621094 C -37.625 167.773438 -42.050781 168.203125 -46.445312 168.90625 C -54.355469 170.128906 -61.882812 172.539062 -69.03125 176.136719 C -82.378906 182.8125 -94.863281 191.089844 -108.359375 197.476562 C -111.40625 198.953125 -114.527344 200.238281 -117.730469 201.335938 C -120.476562 202.246094 -123.0625 203.273438 -125.953125 203.628906 C -126.449219 203.6875 -126.480469 204.511719 -125.953125 204.53125 C -120.785156 204.691406 -115.976562 203.207031 -111.253906 201.261719 C -105.117188 198.734375 -99.242188 195.652344 -93.417969 192.503906 C -88.101562 189.632812 -82.808594 186.710938 -77.359375 184.09375 C -71.035156 181.058594 -64.421875 178.90625 -57.527344 177.632812 C -50.179688 176.238281 -42.820312 175.859375 -35.378906 176.15625 C -34.542969 178.519531 -34.449219 181.316406 -34.4375 183.6875 C -34.40625 187.121094 -34.828125 190.59375 -34.992188 194.035156 C -35.398438 202.640625 -32.957031 210.609375 -29.941406 218.582031 C -28.371094 222.722656 -26.703125 226.832031 -25.359375 231.054688 C -24.121094 234.933594 -23.324219 238.933594 -22.164062 242.839844 C -20.089844 249.871094 -17.1875 256.539062 -13.460938 262.847656 C -6.371094 274.808594 4.238281 284.359375 15.789062 291.90625 C 22.449219 296.261719 29 299.875 36.714844 301.992188 C 43.449219 303.84375 50.597656 304.378906 57.566406 304.019531 C 64.308594 303.671875 71.621094 302.40625 77.800781 301.128906 C 83.191406 300.015625 89.40625 297.980469 95.191406 296.667969 C 96.03125 296.476562 96.878906 296.3125 97.722656 296.148438 C 97.75 296.140625 97.773438 296.136719 97.800781 296.132812 C 97.984375 296.101562 98.167969 296.070312 98.347656 296.042969 C 98.933594 295.945312 99.523438 295.859375 100.089844 295.773438 C 101.40625 295.628906 102.714844 295.414062 104.011719 295.136719 C 105.160156 294.886719 106.332031 294.617188 107.5 294.398438 C 107.9375 294.316406 108.371094 294.238281 108.816406 294.152344 C 109.265625 294.066406 109.621094 294.042969 110.019531 293.957031 L 110.382812 293.804688 C 110.929688 293.558594 110.851562 293.59375 110.148438 293.90625 C 111.292969 294.003906 112.527344 293.773438 113.679688 293.742188 C 116.015625 293.679688 118.1875 293.714844 120.445312 294.328125 C 123.398438 295.136719 127.378906 296.65625 128.101562 300.042969 C 129.070312 304.488281 124.324219 309.628906 121.414062 312.375 C 112.460938 320.832031 99.410156 323.390625 88.734375 328.929688 C 83.753906 331.515625 78.859375 334.777344 75.296875 339.171875 C 71.773438 343.519531 69.855469 348.699219 68.742188 354.132812 C 66.304688 366.054688 65.285156 378.097656 65.683594 390.261719 C 66.046875 401.195312 67.246094 412.488281 74.242188 421.347656 C 82.476562 431.753906 94.65625 438.871094 106.460938 444.488281 C 118.078125 449.960938 130.140625 454.144531 142.648438 457.042969 C 157.417969 460.496094 172.808594 461.523438 187.945312 461.292969 C 201.898438 461.066406 215.996094 459.730469 229.550781 456.328125 C 239.015625 453.953125 248.238281 450.6875 257.394531 447.363281 C 267.402344 443.730469 277.382812 440 287.507812 436.695312 C 297.371094 433.464844 307.363281 430.414062 317.660156 428.917969 C 327.378906 427.507812 337.203125 426.613281 346.972656 428.148438 C 356.328125 429.628906 365.253906 433.242188 372.375 438.945312 C 376.59375 442.296875 380.410156 446.058594 383.820312 450.226562 C 385.226562 451.953125 387.507812 452.738281 389.5 451.453125 Z M 389.5 451.453125 " fill-opacity="1" fill-rule="nonzero"/></g></g></g><g clip-path="url(#d1139db561)"><g clip-path="url(#5155f5c109)"><g clip-path="url(#0992998e9e)"><path fill="#5bd5c1" d="M 59.054688 325.371094 C 59.050781 325.496094 59.078125 325.507812 59.097656 325.472656 L 59.089844 325.394531 Z M 59.054688 325.371094 " fill-opacity="1" fill-rule="nonzero"/></g></g></g><g clip-path="url(#0ce8ea4342)"><g clip-path="url(#b5f57d8ce6)"><g clip-path="url(#78c68d147c)"><path fill="#5bd5c1" d="M 355.960938 457.875 C 356.542969 456.128906 355.519531 454.617188 353.964844 453.902344 C 350.949219 452.53125 348.125 450.925781 344.980469 449.824219 C 341.957031 448.769531 338.894531 447.859375 335.785156 447.097656 C 329.359375 445.484375 322.84375 444.355469 316.25 443.710938 C 302.558594 442.398438 288.683594 443.070312 275.257812 446.101562 C 268.515625 447.589844 262.125 450.007812 256.089844 453.359375 C 250.105469 456.695312 244.21875 460.289062 237.4375 461.726562 C 229.886719 463.324219 222.21875 464.5625 214.625 465.9375 C 207.375 467.253906 200.109375 468.472656 192.777344 469.222656 C 171.890625 471.375 150.648438 472.542969 129.714844 470.433594 C 127.152344 470.179688 124.59375 469.867188 122.046875 469.503906 C 120.78125 469.324219 119.515625 469.136719 118.25 468.941406 C 117.660156 468.851562 117.070312 468.757812 116.484375 468.664062 C 116.152344 468.609375 115.8125 468.546875 115.476562 468.5 L 115.390625 468.484375 L 115.371094 468.496094 C 110.355469 467.574219 105.410156 466.363281 100.535156 464.867188 C 98.117188 464.117188 95.730469 463.28125 93.371094 462.359375 C 93.152344 462.273438 92.929688 462.175781 92.707031 462.09375 C 92.234375 461.890625 91.757812 461.691406 91.285156 461.484375 C 90.109375 460.960938 88.949219 460.417969 87.800781 459.847656 C 85.589844 458.753906 83.433594 457.566406 81.332031 456.28125 C 80.320312 455.664062 79.324219 455.023438 78.347656 454.359375 C 78.167969 454.234375 77.988281 454.105469 77.808594 453.988281 C 77.351562 453.648438 76.898438 453.3125 76.421875 453.007812 C 76.289062 452.914062 75.578125 452.421875 75.640625 452.484375 C 71.917969 449.738281 68.496094 446.664062 65.371094 443.253906 L 65.28125 443.15625 L 64.890625 442.695312 C 64.527344 442.257812 64.171875 441.816406 63.820312 441.371094 C 63.007812 440.34375 62.226562 439.296875 61.472656 438.226562 C 60.015625 436.183594 58.714844 434.042969 57.574219 431.808594 C 51.996094 420.15625 51.78125 406.453125 51.113281 393.8125 C 50.773438 387.34375 50.65625 380.871094 50.449219 374.398438 C 50.257812 368.609375 49.996094 362.824219 51.292969 357.128906 C 52.484375 351.882812 55.175781 346.699219 58.058594 342.199219 C 59.742188 339.570312 61.527344 337.066406 63.394531 334.589844 C 65.003906 332.476562 66.390625 330.296875 66.988281 327.675781 C 67.53125 325.253906 67.328125 322.921875 66.167969 320.746094 C 66.269531 320.941406 66.289062 321.035156 65.902344 320.371094 C 65.386719 319.382812 64.707031 318.523438 63.871094 317.785156 C 62.644531 316.738281 61.292969 315.890625 59.820312 315.234375 C 53.285156 312.332031 45.855469 313.09375 38.980469 313.988281 C 35.792969 314.394531 32.609375 314.847656 29.394531 314.945312 C 28.664062 314.964844 27.933594 314.96875 27.203125 314.945312 L 27.148438 314.945312 C 27.097656 314.9375 27.035156 314.929688 26.945312 314.921875 C 26.539062 314.878906 26.132812 314.835938 25.730469 314.78125 C 24.101562 314.566406 22.492188 314.269531 20.886719 313.917969 C 20.195312 313.765625 19.5 313.605469 18.820312 313.421875 C 18.515625 313.34375 18.21875 313.257812 17.917969 313.171875 L 17.804688 313.132812 C 16.28125 312.625 14.777344 312.0625 13.304688 311.421875 C 11.917969 310.816406 10.558594 310.15625 9.230469 309.441406 C 8.871094 309.25 8.519531 309.050781 8.164062 308.855469 L 7.953125 308.738281 L 7.320312 308.355469 C 6.886719 308.082031 6.457031 307.804688 6.03125 307.527344 C 0.886719 304.117188 -3.792969 300.03125 -8.214844 295.738281 C -8.703125 295.265625 -9.183594 294.792969 -9.667969 294.3125 L -9.851562 294.128906 C -10.089844 293.890625 -10.328125 293.648438 -10.5625 293.402344 C -11.714844 292.21875 -12.84375 291.027344 -13.953125 289.828125 C -16.117188 287.480469 -18.210938 285.070312 -20.230469 282.597656 C -24.433594 277.445312 -28.425781 271.308594 -31.523438 266.367188 C -31.902344 265.765625 -32.265625 265.152344 -32.613281 264.53125 C -32.929688 263.984375 -32.71875 264.339844 -32.644531 264.457031 C -32.839844 264.101562 -33.035156 263.746094 -33.222656 263.390625 C -33.960938 261.992188 -34.652344 260.574219 -35.28125 259.125 C -36.378906 256.59375 -37.296875 254.046875 -37.761719 251.578125 C -37.910156 250.785156 -38.015625 250.003906 -38.230469 249.214844 C -38.296875 248.976562 -38.414062 248.554688 -38.4375 248.433594 C -38.664062 247.277344 -38.871094 246.085938 -39.035156 244.902344 C -39.414062 242.390625 -39.660156 239.867188 -39.773438 237.332031 C -39.945312 231.898438 -39.484375 226.488281 -39.898438 221.050781 C -40.671875 210.820312 -43.960938 200.15625 -53.839844 195.355469 C -62.691406 191.054688 -72.28125 193.726562 -80.792969 197.53125 C -90.367188 201.816406 -99.324219 207.691406 -107.53125 214.1875 C -110.65625 216.671875 -113.414062 219.515625 -115.796875 222.71875 C -116.53125 223.691406 -115.269531 224.988281 -114.285156 224.246094 C -111.832031 222.394531 -109.203125 220.847656 -106.816406 218.945312 C -103.769531 216.519531 -100.605469 214.226562 -97.367188 212.058594 C -90.476562 207.441406 -83.167969 203.238281 -75.359375 200.402344 C -68.867188 198.042969 -62.179688 196.808594 -55.746094 199.980469 C -48.621094 203.5 -46.15625 211.5 -45.324219 218.847656 C -44.40625 227.011719 -44.90625 235.179688 -45.957031 243.289062 C -46.191406 245.078125 -46.472656 246.867188 -46.636719 248.667969 C -46.640625 248.75 -46.667969 249.863281 -46.582031 249.398438 C -46.699219 250.125 -46.875 250.558594 -46.835938 251.433594 C -46.789062 252.667969 -46.660156 253.9375 -46.507812 255.175781 C -45.875 259.964844 -44.4375 264.703125 -42.628906 269.171875 C -38.800781 278.625 -32.527344 287.191406 -26.042969 295 C -19.714844 302.632812 -12.765625 310.472656 -4.617188 316.203125 C 4.933594 322.921875 16.519531 327.839844 28.398438 327.304688 C 34.695312 327.019531 40.761719 325.050781 47.003906 324.320312 C 49.441406 323.996094 51.882812 324.011719 54.316406 324.363281 C 55.671875 324.527344 57.007812 324.773438 58.332031 325.09375 C 58.472656 325.132812 58.566406 325.15625 58.640625 325.175781 L 58.847656 325.296875 L 59.007812 325.390625 C 59.011719 325.332031 59.015625 325.269531 59.027344 325.210938 L 59.035156 325.226562 C 59.03125 325.292969 59.035156 325.355469 59.039062 325.417969 L 59.066406 325.429688 C 59.0625 325.453125 59.054688 325.472656 59.046875 325.492188 C 59.0625 325.59375 59.066406 325.695312 59.0625 325.800781 L 59.03125 326.125 C 58.988281 326.367188 58.925781 326.609375 58.875 326.84375 C 58.695312 327.5625 58.4375 328.25 58.222656 328.953125 C 57.175781 332.25 55.871094 335.445312 54.316406 338.535156 C 51.34375 344.570312 48.265625 350.417969 46.433594 356.941406 C 44.519531 363.742188 44.488281 370.773438 44.125 377.773438 C 43.699219 385.917969 43.207031 394.058594 43.410156 402.21875 C 43.804688 417.738281 46.242188 433.242188 54.730469 446.542969 C 61.425781 457.027344 70.847656 465.234375 81.878906 470.882812 C 104.839844 482.632812 131.277344 484.863281 156.667969 484.023438 C 169.566406 483.582031 182.363281 482.214844 195.125 480.296875 C 204.15625 478.945312 213.035156 476.910156 221.882812 474.695312 C 230.878906 472.445312 240.277344 470.882812 248.644531 466.753906 C 256.042969 463.109375 262.515625 457.964844 270.464844 455.445312 C 277.953125 453.070312 285.714844 451.710938 293.539062 451.070312 C 309.6875 449.742188 326.1875 451.476562 341.640625 456.390625 C 345.03125 457.464844 348.683594 458.402344 351.925781 459.875 C 353.523438 460.5625 355.460938 459.367188 355.960938 457.875 Z M 355.960938 457.875 " fill-opacity="1" fill-rule="nonzero"/></g></g></g><g clip-path="url(#a5a35a94b9)"><g clip-path="url(#653a092636)"><g clip-path="url(#edc8c2e07a)"><path fill="#5bd5c1" d="M 66.1875 320.730469 C 66.144531 320.632812 66.074219 320.515625 66.03125 320.441406 C 66.085938 320.539062 66.132812 320.628906 66.1875 320.730469 Z M 66.1875 320.730469 " fill-opacity="1" fill-rule="nonzero"/></g></g></g><g clip-path="url(#d755f67a2e)"><g clip-path="url(#1f8403d357)"><g clip-path="url(#3541558453)"><path fill="#5bd5c1" d="M 291.914062 481.433594 C 289.730469 482.15625 287.023438 481.84375 284.75 481.816406 C 282.160156 481.746094 279.585938 481.515625 277.023438 481.128906 C 271.703125 480.394531 266.425781 479.300781 261.09375 478.582031 C 255.203125 477.785156 249.074219 478.335938 243.191406 478.988281 C 236.875 479.691406 230.550781 480.730469 224.28125 481.777344 C 198.769531 486.035156 173.765625 493.328125 147.910156 495.546875 C 129.242188 497.152344 110.421875 496.25 92.316406 491.589844 C 90.054688 491.003906 87.816406 490.359375 85.566406 489.695312 L 84.9375 489.492188 C 84.453125 489.324219 83.964844 489.15625 83.472656 488.988281 C 82.34375 488.59375 81.214844 488.179688 80.097656 487.746094 C 75.761719 486.074219 71.566406 484.105469 67.503906 481.851562 L 67.191406 481.671875 C 66.726562 481.378906 66.25 481.101562 65.78125 480.808594 C 64.800781 480.195312 63.835938 479.5625 62.878906 478.902344 C 61.054688 477.644531 59.285156 476.308594 57.566406 474.886719 C 56.75 474.207031 55.945312 473.511719 55.160156 472.800781 C 54.828125 472.5 54.480469 472.207031 54.167969 471.886719 C 53.957031 471.664062 53.734375 471.421875 53.617188 471.320312 C 52.070312 469.734375 50.605469 468.078125 49.226562 466.347656 C 48.558594 465.507812 47.910156 464.652344 47.285156 463.78125 C 46.945312 463.300781 46.617188 462.832031 46.289062 462.351562 C 46.164062 462.160156 45.996094 461.949219 45.855469 461.777344 L 46.027344 461.972656 C 44.554688 460.277344 43.515625 457.785156 42.519531 455.78125 C 40.039062 450.78125 38.542969 446.429688 37.097656 441.757812 C 35.519531 436.734375 34.34375 431.617188 33.578125 426.402344 L 33.460938 425.566406 L 33.433594 425.386719 C 33.375 424.832031 33.332031 424.277344 33.277344 423.722656 C 33.226562 423.234375 33.175781 422.746094 33.109375 422.265625 L 33.058594 421.753906 C 33.003906 421.09375 32.945312 420.433594 32.898438 419.773438 C 32.734375 417.1875 32.707031 414.597656 32.820312 412.007812 C 33.039062 406.351562 33.949219 400.980469 34.71875 395.125 C 35.492188 389.269531 36.066406 383.386719 36.3125 377.5 C 36.558594 371.613281 36.390625 365.648438 35.273438 359.847656 C 34.316406 354.851562 32.917969 349.425781 29.75 345.328125 C 24.640625 338.71875 16.523438 336.15625 8.632812 334.636719 C 0.0625 332.984375 -8.621094 332.78125 -16.824219 329.554688 C -17.949219 329.113281 -18.234375 329.019531 -19.609375 328.476562 C -20.980469 327.9375 -22.273438 327.359375 -23.558594 326.71875 C -25.878906 325.589844 -28.121094 324.320312 -30.28125 322.910156 C -34.285156 320.296875 -37.878906 317.207031 -41.0625 313.644531 C -41.28125 313.398438 -41.945312 312.59375 -41.566406 313.0625 C -41.914062 312.636719 -42.242188 312.207031 -42.585938 311.777344 C -43.339844 310.792969 -44.054688 309.785156 -44.734375 308.746094 C -45.375 307.765625 -45.984375 306.769531 -46.554688 305.757812 C -46.78125 305.359375 -47.003906 304.960938 -47.214844 304.558594 C -47.195312 304.605469 -47.765625 303.414062 -47.878906 303.167969 C -50.214844 298.179688 -51.707031 292.886719 -53.554688 287.71875 C -54.625 284.726562 -55.738281 281.734375 -56.769531 278.722656 C -57.804688 275.710938 -58.480469 273.808594 -59.171875 271 C -59.503906 269.734375 -59.757812 268.449219 -59.933594 267.152344 C -59.964844 266.878906 -60.003906 266.097656 -60.015625 266.136719 C -60.011719 265.535156 -60.007812 264.9375 -59.96875 264.339844 C -59.894531 263.171875 -59.757812 262.015625 -59.558594 260.863281 C -59.519531 260.613281 -59.457031 260.367188 -59.425781 260.121094 C -59.285156 259.503906 -59.140625 258.886719 -58.984375 258.273438 C -57.757812 253.414062 -55.90625 248.347656 -55.976562 243.289062 C -56.050781 238.066406 -57.648438 233.304688 -59.933594 228.660156 C -63.472656 221.476562 -70.453125 217.484375 -78.351562 217.277344 C -82 217.207031 -85.535156 217.816406 -88.949219 219.105469 C -92.722656 220.484375 -96.164062 221.839844 -99.359375 223.535156 C -102.203125 225.050781 -104.925781 226.757812 -107.527344 228.65625 C -109.808594 230.277344 -108.34375 234.722656 -105.386719 233.464844 C -102.214844 232.128906 -99.5 231.09375 -96.382812 230.007812 C -93.261719 228.925781 -90.023438 227.777344 -86.722656 227.332031 C -85.933594 227.226562 -85.132812 227.171875 -84.335938 227.113281 C -83.914062 227.085938 -81.847656 226.890625 -83.058594 227.015625 C -82.640625 226.972656 -82.21875 226.925781 -81.796875 226.894531 C -80.222656 226.804688 -78.648438 226.824219 -77.074219 226.957031 C -77.066406 226.953125 -77.058594 226.949219 -77.050781 226.949219 L -77.023438 226.953125 C -76.644531 227.046875 -76.265625 227.109375 -75.886719 227.203125 C -75.1875 227.378906 -74.527344 227.671875 -73.839844 227.875 C -73.753906 227.914062 -73.667969 227.953125 -73.585938 228 C -73.304688 228.160156 -73.019531 228.316406 -72.753906 228.492188 C -72.484375 228.667969 -72.207031 228.851562 -71.9375 229.042969 L -71.824219 229.125 C -71.675781 229.253906 -71.535156 229.386719 -71.398438 229.527344 C -70.136719 230.800781 -69.707031 231.429688 -68.902344 233.128906 C -68.582031 233.839844 -68.363281 234.585938 -68.246094 235.355469 C -68.160156 235.816406 -68.082031 236.28125 -68.015625 236.746094 L -67.933594 237.371094 C -67.929688 237.386719 -67.933594 237.554688 -67.921875 237.796875 C -67.929688 237.597656 -67.722656 239.988281 -67.800781 239.050781 C -67.847656 238.460938 -67.777344 239.308594 -67.777344 239.355469 C -67.757812 239.953125 -67.75 240.550781 -67.777344 241.148438 C -67.828125 242.339844 -68 243.523438 -68.15625 244.699219 L -68.289062 245.578125 C -68.351562 245.859375 -68.523438 246.703125 -68.5625 246.882812 C -68.84375 248.0625 -69.160156 249.238281 -69.484375 250.40625 C -70.894531 255.492188 -72.480469 260.71875 -72.320312 266.050781 C -72.117188 272.800781 -69.851562 279.347656 -67.515625 285.628906 C -63.730469 295.800781 -60.640625 306.582031 -54.433594 315.609375 C -48.449219 324.308594 -40.144531 330.410156 -30.292969 334.042969 C -25.40625 335.839844 -20.820312 336.988281 -16.09375 337.3125 C -11.875 337.601562 -7.667969 337.804688 -3.453125 338.320312 C 4.476562 339.296875 13.757812 339.890625 20.671875 344.316406 C 24.140625 346.539062 25.8125 349.4375 26.929688 353.324219 C 28.527344 358.875 28.847656 364.824219 28.71875 370.570312 C 28.582031 376.292969 27.914062 381.949219 26.710938 387.542969 C 25.542969 392.988281 23.78125 398.246094 22.871094 403.75 C 21.0625 414.679688 20.894531 425.585938 22.972656 436.480469 C 24.027344 441.800781 25.433594 447.023438 27.191406 452.152344 C 28.933594 457.335938 30.808594 462.445312 33.644531 467.148438 C 43.625 483.695312 60.035156 494.953125 78.085938 501.171875 C 96.601562 507.539062 116.589844 509.644531 136.101562 508.636719 C 146.472656 508.097656 156.726562 506.628906 166.929688 504.730469 C 180.0625 502.289062 193.167969 499.386719 206.074219 495.878906 C 212.40625 494.140625 218.648438 492.289062 224.867188 490.148438 C 230.917969 488.0625 237.113281 486.570312 243.449219 485.671875 C 249.417969 484.8125 255.726562 483.78125 261.765625 484.335938 C 267.265625 484.84375 272.617188 486.636719 278.058594 487.574219 C 280.5625 488.035156 283.085938 488.226562 285.632812 488.152344 C 288.347656 488.050781 290.527344 487.066406 293.042969 486.234375 C 296.105469 485.257812 294.945312 480.425781 291.914062 481.433594 Z M 291.914062 481.433594 " fill-opacity="1" fill-rule="nonzero"/></g></g></g><g clip-path="url(#cb17f4112a)"><g clip-path="url(#57605557af)"><g clip-path="url(#854f7722d8)"><path fill="#5bd5c1" d="M -2.949219 450.871094 C -2.609375 450.453125 -2.324219 450.003906 -2.089844 449.519531 C -1.449219 448.203125 -1.414062 446.824219 -1.472656 445.402344 C -1.523438 444.171875 -1.660156 442.953125 -1.664062 441.726562 C -1.664062 441.195312 -1.664062 440.664062 -1.667969 440.132812 L -1.691406 440.296875 C -1.675781 440.183594 -1.667969 440.070312 -1.667969 439.953125 L -1.667969 439.890625 C -1.664062 439.792969 -1.664062 439.695312 -1.660156 439.605469 C -1.605469 438.253906 -1.460938 436.894531 -1.277344 435.550781 C -1.105469 434.285156 -0.886719 433.019531 -0.636719 431.765625 L -0.488281 431.035156 C -0.742188 432.324219 -0.492188 431.066406 -0.4375 430.835938 C -0.257812 430.09375 -0.0664062 429.355469 0.132812 428.621094 C 0.863281 425.902344 1.730469 423.230469 2.5625 420.542969 C 5.871094 409.851562 10.289062 399.015625 10.832031 387.710938 C 11.332031 377.234375 8.148438 365.984375 0.261719 358.71875 C -5.898438 353.03125 -14.394531 351.132812 -22.460938 350.070312 C -26.726562 349.5 -31.023438 349.164062 -35.285156 348.511719 C -35.789062 348.433594 -36.292969 348.351562 -36.796875 348.265625 L -37.207031 348.199219 L -37.398438 348.152344 C -38.636719 347.878906 -39.875 347.648438 -41.136719 347.457031 C -41.234375 347.441406 -41.363281 347.4375 -41.488281 347.421875 C -41.554688 347.394531 -41.621094 347.375 -41.6875 347.363281 L -42.164062 347.273438 C -42.085938 347.285156 -42.164062 347.273438 -42.371094 347.226562 C -42.582031 347.179688 -42.894531 347.109375 -43.15625 347.042969 C -44.054688 346.84375 -44.925781 346.558594 -45.773438 346.191406 C -46.429688 345.882812 -47.378906 345.964844 -48.136719 346.292969 C -48.226562 346.304688 -48.316406 346.324219 -48.40625 346.339844 C -49.660156 346.527344 -50.5 347.988281 -50.214844 349.171875 L -50.09375 349.617188 C -50.046875 350.125 -49.890625 350.597656 -49.632812 351.035156 C -49.378906 351.476562 -49.039062 351.839844 -48.621094 352.128906 C -45.578125 354.1875 -42.511719 355.808594 -38.886719 356.523438 C -34.898438 357.320312 -30.871094 357.8125 -26.851562 358.328125 C -24.964844 358.570312 -23.078125 358.828125 -21.1875 359.136719 C -20.296875 359.285156 -19.410156 359.464844 -18.523438 359.628906 C -18.300781 359.679688 -18.074219 359.730469 -17.851562 359.78125 C -17.375 359.894531 -16.898438 360.011719 -16.429688 360.140625 C -14.605469 360.613281 -12.828125 361.21875 -11.09375 361.957031 C -10.695312 362.125 -10.308594 362.304688 -9.925781 362.496094 L -9.609375 362.652344 C -8.804688 363.140625 -8 363.613281 -7.238281 364.15625 C -6.96875 364.355469 -5.167969 365.527344 -5.226562 365.8125 C -5.207031 365.71875 -6.011719 365 -5.316406 365.746094 C -5.199219 365.875 -5.070312 366 -4.949219 366.128906 C -4.574219 366.519531 -4.222656 366.929688 -3.894531 367.351562 C -3.609375 367.714844 -3.332031 368.082031 -3.070312 368.460938 C -2.898438 368.703125 -2.570312 369.253906 -2.53125 369.3125 C -2.074219 370.148438 -1.679688 371.007812 -1.351562 371.902344 C -1.246094 372.195312 -1.148438 372.496094 -1.050781 372.796875 C -0.9375 373.320312 -0.773438 373.839844 -0.65625 374.363281 C -0.371094 375.660156 -0.15625 376.972656 -0.0117188 378.292969 C 0.0585938 378.933594 0.113281 379.578125 0.148438 380.222656 L 0.171875 380.820312 L 0.167969 380.902344 C 0.140625 382.167969 0.09375 383.421875 -0.0351562 384.679688 C -1.121094 395.125 -5.390625 404.980469 -8.96875 414.761719 C -11.144531 420.722656 -13.007812 426.890625 -14.023438 433.179688 C -14.519531 436.25 -14.859375 439.566406 -14.535156 442.660156 C -14.136719 446.5625 -13.042969 451.535156 -9.042969 452.6875 C -6.890625 454.207031 -3.832031 453.402344 -2.949219 450.871094 Z M -2.949219 450.871094 " fill-opacity="1" fill-rule="nonzero"/></g></g></g></g></g></g></svg>